<?xml version="1.0" encoding="UTF-8" standalone="no"?>
<!DOCTYPE svg PUBLIC "-//W3C//DTD SVG 1.1//EN"
 "http://www.w3.org/Graphics/SVG/1.1/DTD/svg11.dtd">
<!-- Generated by graphviz version 2.36.0 (20140111.2315)
 -->
<!-- Title: controllers_diagram Pages: 1 -->
<svg width="858pt" height="654pt"
 viewBox="0.00 0.00 858.00 653.70" xmlns="http://www.w3.org/2000/svg" xmlns:xlink="http://www.w3.org/1999/xlink">
<g id="graph0" class="graph" transform="scale(1 1) rotate(0) translate(4 649.695)">
<title>controllers_diagram</title>
<polygon fill="white" stroke="none" points="-4,4 -4,-649.695 854,-649.695 854,4 -4,4"/>
<!-- _diagram_info -->
<g id="node1" class="node"><title>_diagram_info</title>
<text text-anchor="start" x="644" y="-116.6" font-family="Times,serif" font-size="13.00">Controllers diagram</text>
<text text-anchor="start" x="644" y="-102.6" font-family="Times,serif" font-size="13.00">Date: Jun 02 2014 &#45; 13:17</text>
<text text-anchor="start" x="644" y="-88.6" font-family="Times,serif" font-size="13.00">Migration version: 20140519095419</text>
<text text-anchor="start" x="644" y="-74.6" font-family="Times,serif" font-size="13.00">Generated by RailRoady 1.1.1</text>
<text text-anchor="start" x="644" y="-60.6" font-family="Times,serif" font-size="13.00">http://railroady.prestonlee.com</text>
</g>
<!-- FedorarpmsController -->
<g id="node2" class="node"><title>FedorarpmsController</title>
<path fill="none" stroke="black" d="M12,-262.437C12,-262.437 125,-262.437 125,-262.437 131,-262.437 137,-268.437 137,-274.437 137,-274.437 137,-478.437 137,-478.437 137,-484.437 131,-490.437 125,-490.437 125,-490.437 12,-490.437 12,-490.437 6,-490.437 0,-484.437 0,-478.437 0,-478.437 0,-274.437 0,-274.437 0,-268.437 6,-262.437 12,-262.437"/>
<text text-anchor="middle" x="68.5" y="-475.237" font-family="Times,serif" font-size="14.00">FedorarpmsController</text>
<polyline fill="none" stroke="black" points="0,-467.437 137,-467.437 "/>
<text text-anchor="start" x="8" y="-452.237" font-family="Times,serif" font-size="14.00">badge</text>
<text text-anchor="start" x="8" y="-437.237" font-family="Times,serif" font-size="14.00">by_owner</text>
<text text-anchor="start" x="8" y="-422.237" font-family="Times,serif" font-size="14.00">full_dependencies</text>
<text text-anchor="start" x="8" y="-407.237" font-family="Times,serif" font-size="14.00">full_dependents</text>
<text text-anchor="start" x="8" y="-392.237" font-family="Times,serif" font-size="14.00">full_deps</text>
<text text-anchor="start" x="8" y="-377.237" font-family="Times,serif" font-size="14.00">index</text>
<text text-anchor="start" x="8" y="-362.237" font-family="Times,serif" font-size="14.00">not_found</text>
<text text-anchor="start" x="8" y="-347.237" font-family="Times,serif" font-size="14.00">show</text>
<polyline fill="none" stroke="black" points="0,-339.437 137,-339.437 "/>
<polyline fill="none" stroke="black" points="0,-315.437 137,-315.437 "/>
<text text-anchor="start" x="8" y="-300.237" font-family="Times,serif" font-size="14.00">_layout</text>
<text text-anchor="start" x="8" y="-285.237" font-family="Times,serif" font-size="14.00">sort_column</text>
<text text-anchor="start" x="8" y="-270.237" font-family="Times,serif" font-size="14.00">sort_direction</text>
</g>
<!-- ApplicationController -->
<g id="node3" class="node"><title>ApplicationController</title>
<path fill="none" stroke="black" d="M285.359,-271.516C285.359,-271.516 397.359,-271.516 397.359,-271.516 403.359,-271.516 409.359,-277.516 409.359,-283.516 409.359,-283.516 409.359,-368.516 409.359,-368.516 409.359,-374.516 403.359,-380.516 397.359,-380.516 397.359,-380.516 285.359,-380.516 285.359,-380.516 279.359,-380.516 273.359,-374.516 273.359,-368.516 273.359,-368.516 273.359,-283.516 273.359,-283.516 273.359,-277.516 279.359,-271.516 285.359,-271.516"/>
<text text-anchor="middle" x="341.359" y="-365.316" font-family="Times,serif" font-size="14.00">ApplicationController</text>
<polyline fill="none" stroke="black" points="273.359,-357.516 409.359,-357.516 "/>
<polyline fill="none" stroke="black" points="273.359,-333.516 409.359,-333.516 "/>
<polyline fill="none" stroke="black" points="273.359,-309.516 409.359,-309.516 "/>
<text text-anchor="start" x="281.359" y="-294.316" font-family="Times,serif" font-size="14.00">_layout</text>
<text text-anchor="start" x="281.359" y="-279.316" font-family="Times,serif" font-size="14.00">render_error</text>
</g>
<!-- ApplicationController&#45;&gt;FedorarpmsController -->
<g id="edge1" class="edge"><title>ApplicationController&#45;&gt;FedorarpmsController</title>
<path fill="none" stroke="black" d="M273.209,-338.609C231.694,-346.28 178.815,-356.052 137.201,-363.742"/>
</g>
<!-- SearchesController -->
<g id="node4" class="node"><title>SearchesController</title>
<path fill="none" stroke="black" d="M447.282,-33.8095C447.282,-33.8095 543.282,-33.8095 543.282,-33.8095 549.282,-33.8095 555.282,-39.8095 555.282,-45.8095 555.282,-45.8095 555.282,-144.809 555.282,-144.809 555.282,-150.809 549.282,-156.809 543.282,-156.809 543.282,-156.809 447.282,-156.809 447.282,-156.809 441.282,-156.809 435.282,-150.809 435.282,-144.809 435.282,-144.809 435.282,-45.8095 435.282,-45.8095 435.282,-39.8095 441.282,-33.8095 447.282,-33.8095"/>
<text text-anchor="middle" x="495.282" y="-141.609" font-family="Times,serif" font-size="14.00">SearchesController</text>
<polyline fill="none" stroke="black" points="435.282,-133.809 555.282,-133.809 "/>
<text text-anchor="start" x="443.282" y="-118.609" font-family="Times,serif" font-size="14.00">index</text>
<text text-anchor="start" x="443.282" y="-103.609" font-family="Times,serif" font-size="14.00">redirect</text>
<text text-anchor="start" x="443.282" y="-88.6095" font-family="Times,serif" font-size="14.00">suggest_gems</text>
<polyline fill="none" stroke="black" points="435.282,-80.8095 555.282,-80.8095 "/>
<polyline fill="none" stroke="black" points="435.282,-56.8095 555.282,-56.8095 "/>
<text text-anchor="start" x="443.282" y="-41.6095" font-family="Times,serif" font-size="14.00">_layout</text>
</g>
<!-- ApplicationController&#45;&gt;SearchesController -->
<g id="edge2" class="edge"><title>ApplicationController&#45;&gt;SearchesController</title>
<path fill="none" stroke="black" d="M377.836,-271.342C400.773,-236.964 430.415,-192.534 454.182,-156.912"/>
</g>
<!-- HomeController -->
<g id="node5" class="node"><title>HomeController</title>
<path fill="none" stroke="black" d="M349.535,-552.195C349.535,-552.195 431.535,-552.195 431.535,-552.195 437.535,-552.195 443.535,-558.195 443.535,-564.195 443.535,-564.195 443.535,-633.195 443.535,-633.195 443.535,-639.195 437.535,-645.195 431.535,-645.195 431.535,-645.195 349.535,-645.195 349.535,-645.195 343.535,-645.195 337.535,-639.195 337.535,-633.195 337.535,-633.195 337.535,-564.195 337.535,-564.195 337.535,-558.195 343.535,-552.195 349.535,-552.195"/>
<text text-anchor="middle" x="390.535" y="-629.995" font-family="Times,serif" font-size="14.00">HomeController</text>
<polyline fill="none" stroke="black" points="337.535,-622.195 443.535,-622.195 "/>
<text text-anchor="start" x="345.535" y="-606.995" font-family="Times,serif" font-size="14.00">show</text>
<polyline fill="none" stroke="black" points="337.535,-599.195 443.535,-599.195 "/>
<polyline fill="none" stroke="black" points="337.535,-575.195 443.535,-575.195 "/>
<text text-anchor="start" x="345.535" y="-559.995" font-family="Times,serif" font-size="14.00">_layout</text>
</g>
<!-- ApplicationController&#45;&gt;HomeController -->
<g id="edge3" class="edge"><title>ApplicationController&#45;&gt;HomeController</title>
<path fill="none" stroke="black" d="M351.192,-380.541C360.246,-430.742 373.534,-504.425 382.111,-551.983"/>
</g>
<!-- StatsController -->
<g id="node6" class="node"><title>StatsController</title>
<path fill="none" stroke="black" d="M530.298,-398.468C530.298,-398.468 609.298,-398.468 609.298,-398.468 615.298,-398.468 621.298,-404.468 621.298,-410.468 621.298,-410.468 621.298,-554.468 621.298,-554.468 621.298,-560.468 615.298,-566.468 609.298,-566.468 609.298,-566.468 530.298,-566.468 530.298,-566.468 524.298,-566.468 518.298,-560.468 518.298,-554.468 518.298,-554.468 518.298,-410.468 518.298,-410.468 518.298,-404.468 524.298,-398.468 530.298,-398.468"/>
<text text-anchor="middle" x="569.798" y="-551.268" font-family="Times,serif" font-size="14.00">StatsController</text>
<polyline fill="none" stroke="black" points="518.298,-543.468 621.298,-543.468 "/>
<text text-anchor="start" x="526.298" y="-528.268" font-family="Times,serif" font-size="14.00">gemfile_tool</text>
<text text-anchor="start" x="526.298" y="-513.268" font-family="Times,serif" font-size="14.00">index</text>
<text text-anchor="start" x="526.298" y="-498.268" font-family="Times,serif" font-size="14.00">timeline</text>
<text text-anchor="start" x="526.298" y="-483.268" font-family="Times,serif" font-size="14.00">tljson</text>
<text text-anchor="start" x="526.298" y="-468.268" font-family="Times,serif" font-size="14.00">user_rpms</text>
<text text-anchor="start" x="526.298" y="-453.268" font-family="Times,serif" font-size="14.00">user_rpms_data</text>
<polyline fill="none" stroke="black" points="518.298,-445.468 621.298,-445.468 "/>
<polyline fill="none" stroke="black" points="518.298,-421.468 621.298,-421.468 "/>
<text text-anchor="start" x="526.298" y="-406.268" font-family="Times,serif" font-size="14.00">_layout</text>
</g>
<!-- ApplicationController&#45;&gt;StatsController -->
<g id="edge4" class="edge"><title>ApplicationController&#45;&gt;StatsController</title>
<path fill="none" stroke="black" d="M409.589,-372.745C444.429,-396.606 486.122,-425.16 518.241,-447.158"/>
</g>
<!-- BuildsController -->
<g id="node7" class="node"><title>BuildsController</title>
<path fill="none" stroke="black" d="M142.003,-499.454C142.003,-499.454 225.003,-499.454 225.003,-499.454 231.003,-499.454 237.003,-505.454 237.003,-511.454 237.003,-511.454 237.003,-595.454 237.003,-595.454 237.003,-601.454 231.003,-607.454 225.003,-607.454 225.003,-607.454 142.003,-607.454 142.003,-607.454 136.003,-607.454 130.003,-601.454 130.003,-595.454 130.003,-595.454 130.003,-511.454 130.003,-511.454 130.003,-505.454 136.003,-499.454 142.003,-499.454"/>
<text text-anchor="middle" x="183.503" y="-592.254" font-family="Times,serif" font-size="14.00">BuildsController</text>
<polyline fill="none" stroke="black" points="130.003,-584.454 237.003,-584.454 "/>
<text text-anchor="start" x="138.003" y="-569.254" font-family="Times,serif" font-size="14.00">build</text>
<text text-anchor="start" x="138.003" y="-554.254" font-family="Times,serif" font-size="14.00">import</text>
<polyline fill="none" stroke="black" points="130.003,-546.454 237.003,-546.454 "/>
<polyline fill="none" stroke="black" points="130.003,-522.454 237.003,-522.454 "/>
<text text-anchor="start" x="138.003" y="-507.254" font-family="Times,serif" font-size="14.00">_layout</text>
</g>
<!-- ApplicationController&#45;&gt;BuildsController -->
<g id="edge5" class="edge"><title>ApplicationController&#45;&gt;BuildsController</title>
<path fill="none" stroke="black" d="M303.347,-380.782C278.442,-416.666 246.023,-463.375 221.184,-499.163"/>
</g>
<!-- StaticPagesController -->
<g id="node8" class="node"><title>StaticPagesController</title>
<path fill="none" stroke="black" d="M56.851,-108.167C56.851,-108.167 166.851,-108.167 166.851,-108.167 172.851,-108.167 178.851,-114.167 178.851,-120.167 178.851,-120.167 178.851,-219.167 178.851,-219.167 178.851,-225.167 172.851,-231.167 166.851,-231.167 166.851,-231.167 56.851,-231.167 56.851,-231.167 50.851,-231.167 44.851,-225.167 44.851,-219.167 44.851,-219.167 44.851,-120.167 44.851,-120.167 44.851,-114.167 50.851,-108.167 56.851,-108.167"/>
<text text-anchor="middle" x="111.851" y="-215.967" font-family="Times,serif" font-size="14.00">StaticPagesController</text>
<polyline fill="none" stroke="black" points="44.851,-208.167 178.851,-208.167 "/>
<text text-anchor="start" x="52.851" y="-192.967" font-family="Times,serif" font-size="14.00">about</text>
<text text-anchor="start" x="52.851" y="-177.967" font-family="Times,serif" font-size="14.00">contribute</text>
<text text-anchor="start" x="52.851" y="-162.967" font-family="Times,serif" font-size="14.00">successes</text>
<polyline fill="none" stroke="black" points="44.851,-155.167 178.851,-155.167 "/>
<polyline fill="none" stroke="black" points="44.851,-131.167 178.851,-131.167 "/>
<text text-anchor="start" x="52.851" y="-115.967" font-family="Times,serif" font-size="14.00">_layout</text>
</g>
<!-- ApplicationController&#45;&gt;StaticPagesController -->
<g id="edge6" class="edge"><title>ApplicationController&#45;&gt;StaticPagesController</title>
<path fill="none" stroke="black" d="M273.12,-279.529C243.39,-259.276 208.646,-235.607 179.036,-215.436"/>
</g>
<!-- RubygemsController -->
<g id="node9" class="node"><title>RubygemsController</title>
<path fill="none" stroke="black" d="M559.699,-204.255C559.699,-204.255 666.699,-204.255 666.699,-204.255 672.699,-204.255 678.699,-210.255 678.699,-216.255 678.699,-216.255 678.699,-330.255 678.699,-330.255 678.699,-336.255 672.699,-342.255 666.699,-342.255 666.699,-342.255 559.699,-342.255 559.699,-342.255 553.699,-342.255 547.699,-336.255 547.699,-330.255 547.699,-330.255 547.699,-216.255 547.699,-216.255 547.699,-210.255 553.699,-204.255 559.699,-204.255"/>
<text text-anchor="middle" x="613.199" y="-327.055" font-family="Times,serif" font-size="14.00">RubygemsController</text>
<polyline fill="none" stroke="black" points="547.699,-319.255 678.699,-319.255 "/>
<text text-anchor="start" x="555.699" y="-304.055" font-family="Times,serif" font-size="14.00">index</text>
<text text-anchor="start" x="555.699" y="-289.055" font-family="Times,serif" font-size="14.00">show</text>
<polyline fill="none" stroke="black" points="547.699,-281.255 678.699,-281.255 "/>
<polyline fill="none" stroke="black" points="547.699,-257.255 678.699,-257.255 "/>
<text text-anchor="start" x="555.699" y="-242.055" font-family="Times,serif" font-size="14.00">_layout</text>
<text text-anchor="start" x="555.699" y="-227.055" font-family="Times,serif" font-size="14.00">sort_column</text>
<text text-anchor="start" x="555.699" y="-212.055" font-family="Times,serif" font-size="14.00">sort_direction</text>
</g>
<!-- ApplicationController&#45;&gt;RubygemsController -->
<g id="edge7" class="edge"><title>ApplicationController&#45;&gt;RubygemsController</title>
<path fill="none" stroke="black" d="M409.605,-312.77C451.754,-304.589 505.561,-294.146 547.272,-286.05"/>
</g>
<!-- ErrorsController -->
<g id="node10" class="node"><title>ErrorsController</title>
<path fill="none" stroke="black" d="M247.137,-0.5C247.137,-0.5 329.137,-0.5 329.137,-0.5 335.137,-0.5 341.137,-6.5 341.137,-12.5 341.137,-12.5 341.137,-96.5 341.137,-96.5 341.137,-102.5 335.137,-108.5 329.137,-108.5 329.137,-108.5 247.137,-108.5 247.137,-108.5 241.137,-108.5 235.137,-102.5 235.137,-96.5 235.137,-96.5 235.137,-12.5 235.137,-12.5 235.137,-6.5 241.137,-0.5 247.137,-0.5"/>
<text text-anchor="middle" x="288.137" y="-93.3" font-family="Times,serif" font-size="14.00">ErrorsController</text>
<polyline fill="none" stroke="black" points="235.137,-85.5 341.137,-85.5 "/>
<text text-anchor="start" x="243.137" y="-70.3" font-family="Times,serif" font-size="14.00">error_404</text>
<text text-anchor="start" x="243.137" y="-55.3" font-family="Times,serif" font-size="14.00">error_500</text>
<polyline fill="none" stroke="black" points="235.137,-47.5 341.137,-47.5 "/>
<polyline fill="none" stroke="black" points="235.137,-23.5 341.137,-23.5 "/>
<text text-anchor="start" x="243.137" y="-8.3" font-family="Times,serif" font-size="14.00">_layout</text>
</g>
<!-- ApplicationController&#45;&gt;ErrorsController -->
<g id="edge8" class="edge"><title>ApplicationController&#45;&gt;ErrorsController</title>
<path fill="none" stroke="black" d="M330.653,-271.397C321.364,-224.011 307.992,-155.792 298.735,-108.568"/>
</g>
</g>
</svg>
