<?xml version="1.0" encoding="UTF-8" standalone="no"?>
<!DOCTYPE svg PUBLIC "-//W3C//DTD SVG 1.1//EN"
 "http://www.w3.org/Graphics/SVG/1.1/DTD/svg11.dtd">
<!-- Generated by graphviz version 2.36.0 (20140111.2315)
 -->
<!-- Title: controllers_diagram Pages: 1 -->
<svg width="761pt" height="616pt"
 viewBox="0.00 0.00 761.00 615.62" xmlns="http://www.w3.org/2000/svg" xmlns:xlink="http://www.w3.org/1999/xlink">
<g id="graph0" class="graph" transform="scale(1 1) rotate(0) translate(4 611.618)">
<title>controllers_diagram</title>
<polygon fill="white" stroke="none" points="-4,4 -4,-611.618 757,-611.618 757,4 -4,4"/>
<!-- _diagram_info -->
<g id="node1" class="node"><title>_diagram_info</title>
<text text-anchor="start" x="547" y="-112.6" font-family="Times,serif" font-size="13.00">Controllers diagram</text>
<text text-anchor="start" x="547" y="-98.6" font-family="Times,serif" font-size="13.00">Date: Jun 26 2014 &#45; 10:51</text>
<text text-anchor="start" x="547" y="-84.6" font-family="Times,serif" font-size="13.00">Migration version: 20140625081947</text>
<text text-anchor="start" x="547" y="-70.6" font-family="Times,serif" font-size="13.00">Generated by RailRoady 1.1.1</text>
<text text-anchor="start" x="547" y="-56.6" font-family="Times,serif" font-size="13.00">http://railroady.prestonlee.com</text>
</g>
<!-- FedorarpmsController -->
<g id="node2" class="node"><title>FedorarpmsController</title>
<path fill="none" stroke="black" d="M12,-173.485C12,-173.485 125,-173.485 125,-173.485 131,-173.485 137,-179.485 137,-185.485 137,-185.485 137,-389.485 137,-389.485 137,-395.485 131,-401.485 125,-401.485 125,-401.485 12,-401.485 12,-401.485 6,-401.485 0,-395.485 0,-389.485 0,-389.485 0,-185.485 0,-185.485 0,-179.485 6,-173.485 12,-173.485"/>
<text text-anchor="middle" x="68.5" y="-386.285" font-family="Times,serif" font-size="14.00">FedorarpmsController</text>
<polyline fill="none" stroke="black" points="0,-378.485 137,-378.485 "/>
<text text-anchor="start" x="8" y="-363.285" font-family="Times,serif" font-size="14.00">badge</text>
<text text-anchor="start" x="8" y="-348.285" font-family="Times,serif" font-size="14.00">by_owner</text>
<text text-anchor="start" x="8" y="-333.285" font-family="Times,serif" font-size="14.00">full_dependencies</text>
<text text-anchor="start" x="8" y="-318.285" font-family="Times,serif" font-size="14.00">full_dependents</text>
<text text-anchor="start" x="8" y="-303.285" font-family="Times,serif" font-size="14.00">full_deps</text>
<text text-anchor="start" x="8" y="-288.285" font-family="Times,serif" font-size="14.00">index</text>
<text text-anchor="start" x="8" y="-273.285" font-family="Times,serif" font-size="14.00">not_found</text>
<text text-anchor="start" x="8" y="-258.285" font-family="Times,serif" font-size="14.00">show</text>
<polyline fill="none" stroke="black" points="0,-250.485 137,-250.485 "/>
<polyline fill="none" stroke="black" points="0,-226.485 137,-226.485 "/>
<text text-anchor="start" x="8" y="-211.285" font-family="Times,serif" font-size="14.00">_layout</text>
<text text-anchor="start" x="8" y="-196.285" font-family="Times,serif" font-size="14.00">sort_column</text>
<text text-anchor="start" x="8" y="-181.285" font-family="Times,serif" font-size="14.00">sort_direction</text>
</g>
<!-- ApplicationController -->
<g id="node3" class="node"><title>ApplicationController</title>
<path fill="none" stroke="black" d="M268.208,-252.163C268.208,-252.163 380.208,-252.163 380.208,-252.163 386.208,-252.163 392.208,-258.163 392.208,-264.163 392.208,-264.163 392.208,-349.163 392.208,-349.163 392.208,-355.163 386.208,-361.163 380.208,-361.163 380.208,-361.163 268.208,-361.163 268.208,-361.163 262.208,-361.163 256.208,-355.163 256.208,-349.163 256.208,-349.163 256.208,-264.163 256.208,-264.163 256.208,-258.163 262.208,-252.163 268.208,-252.163"/>
<text text-anchor="middle" x="324.208" y="-345.963" font-family="Times,serif" font-size="14.00">ApplicationController</text>
<polyline fill="none" stroke="black" points="256.208,-338.163 392.208,-338.163 "/>
<polyline fill="none" stroke="black" points="256.208,-314.163 392.208,-314.163 "/>
<polyline fill="none" stroke="black" points="256.208,-290.163 392.208,-290.163 "/>
<text text-anchor="start" x="264.208" y="-274.963" font-family="Times,serif" font-size="14.00">_layout</text>
<text text-anchor="start" x="264.208" y="-259.963" font-family="Times,serif" font-size="14.00">render_error</text>
</g>
<!-- ApplicationController&#45;&gt;FedorarpmsController -->
<g id="edge1" class="edge"><title>ApplicationController&#45;&gt;FedorarpmsController</title>
<path fill="none" stroke="black" d="M256.019,-301.549C219.327,-298.797 174.185,-295.411 137.388,-292.651"/>
</g>
<!-- SearchesController -->
<g id="node4" class="node"><title>SearchesController</title>
<path fill="none" stroke="black" d="M351.518,-0.5C351.518,-0.5 447.518,-0.5 447.518,-0.5 453.518,-0.5 459.518,-6.5 459.518,-12.5 459.518,-12.5 459.518,-111.5 459.518,-111.5 459.518,-117.5 453.518,-123.5 447.518,-123.5 447.518,-123.5 351.518,-123.5 351.518,-123.5 345.518,-123.5 339.518,-117.5 339.518,-111.5 339.518,-111.5 339.518,-12.5 339.518,-12.5 339.518,-6.5 345.518,-0.5 351.518,-0.5"/>
<text text-anchor="middle" x="399.518" y="-108.3" font-family="Times,serif" font-size="14.00">SearchesController</text>
<polyline fill="none" stroke="black" points="339.518,-100.5 459.518,-100.5 "/>
<text text-anchor="start" x="347.518" y="-85.3" font-family="Times,serif" font-size="14.00">index</text>
<text text-anchor="start" x="347.518" y="-70.3" font-family="Times,serif" font-size="14.00">redirect</text>
<text text-anchor="start" x="347.518" y="-55.3" font-family="Times,serif" font-size="14.00">suggest_gems</text>
<polyline fill="none" stroke="black" points="339.518,-47.5 459.518,-47.5 "/>
<polyline fill="none" stroke="black" points="339.518,-23.5 459.518,-23.5 "/>
<text text-anchor="start" x="347.518" y="-8.3" font-family="Times,serif" font-size="14.00">_layout</text>
</g>
<!-- ApplicationController&#45;&gt;SearchesController -->
<g id="edge2" class="edge"><title>ApplicationController&#45;&gt;SearchesController</title>
<path fill="none" stroke="black" d="M341.015,-252.06C352.72,-214.035 368.349,-163.26 380.508,-123.757"/>
</g>
<!-- HomeController -->
<g id="node5" class="node"><title>HomeController</title>
<path fill="none" stroke="black" d="M317.803,-514.118C317.803,-514.118 399.803,-514.118 399.803,-514.118 405.803,-514.118 411.803,-520.118 411.803,-526.118 411.803,-526.118 411.803,-595.118 411.803,-595.118 411.803,-601.118 405.803,-607.118 399.803,-607.118 399.803,-607.118 317.803,-607.118 317.803,-607.118 311.803,-607.118 305.803,-601.118 305.803,-595.118 305.803,-595.118 305.803,-526.118 305.803,-526.118 305.803,-520.118 311.803,-514.118 317.803,-514.118"/>
<text text-anchor="middle" x="358.803" y="-591.918" font-family="Times,serif" font-size="14.00">HomeController</text>
<polyline fill="none" stroke="black" points="305.803,-584.118 411.803,-584.118 "/>
<text text-anchor="start" x="313.803" y="-568.918" font-family="Times,serif" font-size="14.00">show</text>
<polyline fill="none" stroke="black" points="305.803,-561.118 411.803,-561.118 "/>
<polyline fill="none" stroke="black" points="305.803,-537.118 411.803,-537.118 "/>
<text text-anchor="start" x="313.803" y="-521.918" font-family="Times,serif" font-size="14.00">_layout</text>
</g>
<!-- ApplicationController&#45;&gt;HomeController -->
<g id="edge3" class="edge"><title>ApplicationController&#45;&gt;HomeController</title>
<path fill="none" stroke="black" d="M331.672,-361.454C337.869,-406.948 346.589,-470.953 352.455,-514.015"/>
</g>
<!-- StatsController -->
<g id="node6" class="node"><title>StatsController</title>
<path fill="none" stroke="black" d="M504.77,-353.617C504.77,-353.617 583.77,-353.617 583.77,-353.617 589.77,-353.617 595.77,-359.617 595.77,-365.617 595.77,-365.617 595.77,-509.617 595.77,-509.617 595.77,-515.617 589.77,-521.617 583.77,-521.617 583.77,-521.617 504.77,-521.617 504.77,-521.617 498.77,-521.617 492.77,-515.617 492.77,-509.617 492.77,-509.617 492.77,-365.617 492.77,-365.617 492.77,-359.617 498.77,-353.617 504.77,-353.617"/>
<text text-anchor="middle" x="544.27" y="-506.417" font-family="Times,serif" font-size="14.00">StatsController</text>
<polyline fill="none" stroke="black" points="492.77,-498.617 595.77,-498.617 "/>
<text text-anchor="start" x="500.77" y="-483.417" font-family="Times,serif" font-size="14.00">gemfile_tool</text>
<text text-anchor="start" x="500.77" y="-468.417" font-family="Times,serif" font-size="14.00">index</text>
<text text-anchor="start" x="500.77" y="-453.417" font-family="Times,serif" font-size="14.00">timeline</text>
<text text-anchor="start" x="500.77" y="-438.417" font-family="Times,serif" font-size="14.00">tljson</text>
<text text-anchor="start" x="500.77" y="-423.417" font-family="Times,serif" font-size="14.00">user_rpms</text>
<text text-anchor="start" x="500.77" y="-408.417" font-family="Times,serif" font-size="14.00">user_rpms_data</text>
<polyline fill="none" stroke="black" points="492.77,-400.617 595.77,-400.617 "/>
<polyline fill="none" stroke="black" points="492.77,-376.617 595.77,-376.617 "/>
<text text-anchor="start" x="500.77" y="-361.417" font-family="Times,serif" font-size="14.00">_layout</text>
</g>
<!-- ApplicationController&#45;&gt;StatsController -->
<g id="edge4" class="edge"><title>ApplicationController&#45;&gt;StatsController</title>
<path fill="none" stroke="black" d="M392.33,-347.2C424.645,-366.43 462.63,-389.034 492.536,-406.831"/>
</g>
<!-- StaticPagesController -->
<g id="node7" class="node"><title>StaticPagesController</title>
<path fill="none" stroke="black" d="M93.4534,-431.681C93.4534,-431.681 203.453,-431.681 203.453,-431.681 209.453,-431.681 215.453,-437.681 215.453,-443.681 215.453,-443.681 215.453,-542.681 215.453,-542.681 215.453,-548.681 209.453,-554.681 203.453,-554.681 203.453,-554.681 93.4534,-554.681 93.4534,-554.681 87.4534,-554.681 81.4534,-548.681 81.4534,-542.681 81.4534,-542.681 81.4534,-443.681 81.4534,-443.681 81.4534,-437.681 87.4534,-431.681 93.4534,-431.681"/>
<text text-anchor="middle" x="148.453" y="-539.481" font-family="Times,serif" font-size="14.00">StaticPagesController</text>
<polyline fill="none" stroke="black" points="81.4534,-531.681 215.453,-531.681 "/>
<text text-anchor="start" x="89.4534" y="-516.481" font-family="Times,serif" font-size="14.00">about</text>
<text text-anchor="start" x="89.4534" y="-501.481" font-family="Times,serif" font-size="14.00">contribute</text>
<text text-anchor="start" x="89.4534" y="-486.481" font-family="Times,serif" font-size="14.00">successes</text>
<polyline fill="none" stroke="black" points="81.4534,-478.681 215.453,-478.681 "/>
<polyline fill="none" stroke="black" points="81.4534,-454.681 215.453,-454.681 "/>
<text text-anchor="start" x="89.4534" y="-439.481" font-family="Times,serif" font-size="14.00">_layout</text>
</g>
<!-- ApplicationController&#45;&gt;StaticPagesController -->
<g id="edge5" class="edge"><title>ApplicationController&#45;&gt;StaticPagesController</title>
<path fill="none" stroke="black" d="M272.663,-361.364C251.899,-383.4 227.85,-408.922 206.475,-431.606"/>
</g>
<!-- RubygemsController -->
<g id="node8" class="node"><title>RubygemsController</title>
<path fill="none" stroke="black" d="M125.715,-26.4658C125.715,-26.4658 232.715,-26.4658 232.715,-26.4658 238.715,-26.4658 244.715,-32.4658 244.715,-38.4658 244.715,-38.4658 244.715,-152.466 244.715,-152.466 244.715,-158.466 238.715,-164.466 232.715,-164.466 232.715,-164.466 125.715,-164.466 125.715,-164.466 119.715,-164.466 113.715,-158.466 113.715,-152.466 113.715,-152.466 113.715,-38.4658 113.715,-38.4658 113.715,-32.4658 119.715,-26.4658 125.715,-26.4658"/>
<text text-anchor="middle" x="179.215" y="-149.266" font-family="Times,serif" font-size="14.00">RubygemsController</text>
<polyline fill="none" stroke="black" points="113.715,-141.466 244.715,-141.466 "/>
<text text-anchor="start" x="121.715" y="-126.266" font-family="Times,serif" font-size="14.00">index</text>
<text text-anchor="start" x="121.715" y="-111.266" font-family="Times,serif" font-size="14.00">show</text>
<polyline fill="none" stroke="black" points="113.715,-103.466 244.715,-103.466 "/>
<polyline fill="none" stroke="black" points="113.715,-79.4658 244.715,-79.4658 "/>
<text text-anchor="start" x="121.715" y="-64.2658" font-family="Times,serif" font-size="14.00">_layout</text>
<text text-anchor="start" x="121.715" y="-49.2658" font-family="Times,serif" font-size="14.00">sort_column</text>
<text text-anchor="start" x="121.715" y="-34.2658" font-family="Times,serif" font-size="14.00">sort_direction</text>
</g>
<!-- ApplicationController&#45;&gt;RubygemsController -->
<g id="edge6" class="edge"><title>ApplicationController&#45;&gt;RubygemsController</title>
<path fill="none" stroke="black" d="M286.68,-252C268.388,-225.355 246.191,-193.023 226.73,-164.675"/>
</g>
<!-- ErrorsController -->
<g id="node9" class="node"><title>ErrorsController</title>
<path fill="none" stroke="black" d="M522.095,-160.782C522.095,-160.782 604.095,-160.782 604.095,-160.782 610.095,-160.782 616.095,-166.782 616.095,-172.782 616.095,-172.782 616.095,-256.782 616.095,-256.782 616.095,-262.782 610.095,-268.782 604.095,-268.782 604.095,-268.782 522.095,-268.782 522.095,-268.782 516.095,-268.782 510.095,-262.782 510.095,-256.782 510.095,-256.782 510.095,-172.782 510.095,-172.782 510.095,-166.782 516.095,-160.782 522.095,-160.782"/>
<text text-anchor="middle" x="563.095" y="-253.582" font-family="Times,serif" font-size="14.00">ErrorsController</text>
<polyline fill="none" stroke="black" points="510.095,-245.782 616.095,-245.782 "/>
<text text-anchor="start" x="518.095" y="-230.582" font-family="Times,serif" font-size="14.00">error_404</text>
<text text-anchor="start" x="518.095" y="-215.582" font-family="Times,serif" font-size="14.00">error_500</text>
<polyline fill="none" stroke="black" points="510.095,-207.782 616.095,-207.782 "/>
<polyline fill="none" stroke="black" points="510.095,-183.782 616.095,-183.782 "/>
<text text-anchor="start" x="518.095" y="-168.582" font-family="Times,serif" font-size="14.00">_layout</text>
</g>
<!-- ApplicationController&#45;&gt;ErrorsController -->
<g id="edge7" class="edge"><title>ApplicationController&#45;&gt;ErrorsController</title>
<path fill="none" stroke="black" d="M392.344,-280.456C429.716,-266.082 475.364,-248.525 510.056,-235.182"/>
</g>
</g>
</svg>
