<?xml version="1.0" encoding="UTF-8" standalone="no"?>
<!DOCTYPE svg PUBLIC "-//W3C//DTD SVG 1.1//EN"
 "http://www.w3.org/Graphics/SVG/1.1/DTD/svg11.dtd">
<!-- Generated by graphviz version 2.36.0 (20140111.2315)
 -->
<!-- Title: models_diagram Pages: 1 -->
<svg width="700pt" height="816pt"
 viewBox="0.00 0.00 700.00 816.00" xmlns="http://www.w3.org/2000/svg" xmlns:xlink="http://www.w3.org/1999/xlink">
<g id="graph0" class="graph" transform="scale(1 1) rotate(0) translate(4 812)">
<title>models_diagram</title>
<polygon fill="white" stroke="none" points="-4,4 -4,-812 696,-812 696,4 -4,4"/>
<!-- _diagram_info -->
<g id="node1" class="node"><title>_diagram_info</title>
<text text-anchor="start" x="8" y="-793.6" font-family="Times,serif" font-size="13.00">Models diagram</text>
<text text-anchor="start" x="8" y="-779.6" font-family="Times,serif" font-size="13.00">Date: Jun 30 2014 &#45; 13:33</text>
<text text-anchor="start" x="8" y="-765.6" font-family="Times,serif" font-size="13.00">Migration version: 20140625081947</text>
<text text-anchor="start" x="8" y="-751.6" font-family="Times,serif" font-size="13.00">Generated by RailRoady 1.1.1</text>
<text text-anchor="start" x="8" y="-737.6" font-family="Times,serif" font-size="13.00">http://railroady.prestonlee.com</text>
</g>
<!-- RubyGem -->
<g id="node2" class="node"><title>RubyGem</title>
<path fill="none" stroke="black" d="M165.5,-512.5C165.5,-512.5 272.5,-512.5 272.5,-512.5 278.5,-512.5 284.5,-518.5 284.5,-524.5 284.5,-524.5 284.5,-681.5 284.5,-681.5 284.5,-687.5 278.5,-693.5 272.5,-693.5 272.5,-693.5 165.5,-693.5 165.5,-693.5 159.5,-693.5 153.5,-687.5 153.5,-681.5 153.5,-681.5 153.5,-524.5 153.5,-524.5 153.5,-518.5 159.5,-512.5 165.5,-512.5"/>
<text text-anchor="middle" x="219" y="-678.3" font-family="Times,serif" font-size="14.00">RubyGem</text>
<polyline fill="none" stroke="black" points="153.5,-670.5 284.5,-670.5 "/>
<text text-anchor="start" x="161.5" y="-655.3" font-family="Times,serif" font-size="14.00">id :integer</text>
<text text-anchor="start" x="161.5" y="-640.3" font-family="Times,serif" font-size="14.00">name :string</text>
<text text-anchor="start" x="161.5" y="-625.3" font-family="Times,serif" font-size="14.00">description :text</text>
<text text-anchor="start" x="161.5" y="-610.3" font-family="Times,serif" font-size="14.00">homepage :string</text>
<text text-anchor="start" x="161.5" y="-595.3" font-family="Times,serif" font-size="14.00">version :string</text>
<text text-anchor="start" x="161.5" y="-580.3" font-family="Times,serif" font-size="14.00">has_rpm :boolean</text>
<text text-anchor="start" x="161.5" y="-565.3" font-family="Times,serif" font-size="14.00">created_at :datetime</text>
<text text-anchor="start" x="161.5" y="-550.3" font-family="Times,serif" font-size="14.00">updated_at :datetime</text>
<text text-anchor="start" x="161.5" y="-535.3" font-family="Times,serif" font-size="14.00">downloads :integer</text>
<text text-anchor="start" x="161.5" y="-520.3" font-family="Times,serif" font-size="14.00">source_uri :string</text>
</g>
<!-- FedoraRpm -->
<g id="node3" class="node"><title>FedoraRpm</title>
<path fill="none" stroke="black" d="M339,-204.5C339,-204.5 491,-204.5 491,-204.5 497,-204.5 503,-210.5 503,-216.5 503,-216.5 503,-463.5 503,-463.5 503,-469.5 497,-475.5 491,-475.5 491,-475.5 339,-475.5 339,-475.5 333,-475.5 327,-469.5 327,-463.5 327,-463.5 327,-216.5 327,-216.5 327,-210.5 333,-204.5 339,-204.5"/>
<text text-anchor="middle" x="415" y="-460.3" font-family="Times,serif" font-size="14.00">FedoraRpm</text>
<polyline fill="none" stroke="black" points="327,-452.5 503,-452.5 "/>
<text text-anchor="start" x="335" y="-437.3" font-family="Times,serif" font-size="14.00">id :integer</text>
<text text-anchor="start" x="335" y="-422.3" font-family="Times,serif" font-size="14.00">name :string</text>
<text text-anchor="start" x="335" y="-407.3" font-family="Times,serif" font-size="14.00">source_uri :string</text>
<text text-anchor="start" x="335" y="-392.3" font-family="Times,serif" font-size="14.00">last_commit_message :string</text>
<text text-anchor="start" x="335" y="-377.3" font-family="Times,serif" font-size="14.00">created_at :datetime</text>
<text text-anchor="start" x="335" y="-362.3" font-family="Times,serif" font-size="14.00">updated_at :datetime</text>
<text text-anchor="start" x="335" y="-347.3" font-family="Times,serif" font-size="14.00">author :string</text>
<text text-anchor="start" x="335" y="-332.3" font-family="Times,serif" font-size="14.00">last_committer :string</text>
<text text-anchor="start" x="335" y="-317.3" font-family="Times,serif" font-size="14.00">last_commit_date :datetime</text>
<text text-anchor="start" x="335" y="-302.3" font-family="Times,serif" font-size="14.00">last_commit_sha :string</text>
<text text-anchor="start" x="335" y="-287.3" font-family="Times,serif" font-size="14.00">homepage :string</text>
<text text-anchor="start" x="335" y="-272.3" font-family="Times,serif" font-size="14.00">ruby_gem_id :integer</text>
<text text-anchor="start" x="335" y="-257.3" font-family="Times,serif" font-size="14.00">commits :integer</text>
<text text-anchor="start" x="335" y="-242.3" font-family="Times,serif" font-size="14.00">fedora_user :string</text>
<text text-anchor="start" x="335" y="-227.3" font-family="Times,serif" font-size="14.00">summary :text</text>
<text text-anchor="start" x="335" y="-212.3" font-family="Times,serif" font-size="14.00">description :text</text>
</g>
<!-- RubyGem&#45;&gt;FedoraRpm -->
<g id="edge1" class="edge"><title>RubyGem&#45;&gt;FedoraRpm</title>
<path fill="none" stroke="#480f40" d="M289.347,-508.323C299.897,-494.275 310.912,-479.607 321.846,-465.047"/>
<ellipse fill="none" stroke="#480f40" cx="286.94" cy="-511.529" rx="4.00002" ry="4.00002"/>
<ellipse fill="#480f40" stroke="#480f40" cx="324.46" cy="-461.565" rx="4.00002" ry="4.00002"/>
</g>
<!-- Dependency -->
<g id="node4" class="node"><title>Dependency</title>
<path fill="none" stroke="black" d="M64.5,-8.5C64.5,-8.5 197.5,-8.5 197.5,-8.5 203.5,-8.5 209.5,-14.5 209.5,-20.5 209.5,-20.5 209.5,-147.5 209.5,-147.5 209.5,-153.5 203.5,-159.5 197.5,-159.5 197.5,-159.5 64.5,-159.5 64.5,-159.5 58.5,-159.5 52.5,-153.5 52.5,-147.5 52.5,-147.5 52.5,-20.5 52.5,-20.5 52.5,-14.5 58.5,-8.5 64.5,-8.5"/>
<text text-anchor="middle" x="131" y="-144.3" font-family="Times,serif" font-size="14.00">Dependency</text>
<polyline fill="none" stroke="black" points="52.5,-136.5 209.5,-136.5 "/>
<text text-anchor="start" x="60.5" y="-121.3" font-family="Times,serif" font-size="14.00">id :integer</text>
<text text-anchor="start" x="60.5" y="-106.3" font-family="Times,serif" font-size="14.00">environment :string</text>
<text text-anchor="start" x="60.5" y="-91.3" font-family="Times,serif" font-size="14.00">dependent :string</text>
<text text-anchor="start" x="60.5" y="-76.3" font-family="Times,serif" font-size="14.00">dependent_version :string</text>
<text text-anchor="start" x="60.5" y="-61.3" font-family="Times,serif" font-size="14.00">created_at :datetime</text>
<text text-anchor="start" x="60.5" y="-46.3" font-family="Times,serif" font-size="14.00">updated_at :datetime</text>
<text text-anchor="start" x="60.5" y="-31.3" font-family="Times,serif" font-size="14.00">package_id :integer</text>
<text text-anchor="start" x="60.5" y="-16.3" font-family="Times,serif" font-size="14.00">package_type :string</text>
</g>
<!-- RubyGem&#45;&gt;Dependency -->
<g id="edge2" class="edge"><title>RubyGem&#45;&gt;Dependency</title>
<path fill="none" stroke="#608071" d="M233.962,-503.893C242.772,-421.706 246.77,-302.38 215,-204 211.068,-191.823 205.408,-179.81 198.857,-168.373"/>
<ellipse fill="none" stroke="#608071" cx="233.479" cy="-508.251" rx="4" ry="4"/>
<polygon fill="#608071" stroke="#608071" points="198.828,-168.324 197.549,-157.433 196.258,-164.035 193.688,-159.746 193.688,-159.746 193.688,-159.746 196.258,-164.035 189.828,-162.059 198.828,-168.324 198.828,-168.324"/>
</g>
<!-- GemVersion -->
<g id="node5" class="node"><title>GemVersion</title>
<path fill="none" stroke="black" d="M84,-287C84,-287 194,-287 194,-287 200,-287 206,-293 206,-299 206,-299 206,-381 206,-381 206,-387 200,-393 194,-393 194,-393 84,-393 84,-393 78,-393 72,-387 72,-381 72,-381 72,-299 72,-299 72,-293 78,-287 84,-287"/>
<text text-anchor="middle" x="139" y="-377.8" font-family="Times,serif" font-size="14.00">GemVersion</text>
<polyline fill="none" stroke="black" points="72,-370 206,-370 "/>
<text text-anchor="start" x="80" y="-354.8" font-family="Times,serif" font-size="14.00">id :integer</text>
<text text-anchor="start" x="80" y="-339.8" font-family="Times,serif" font-size="14.00">gem_version :string</text>
<text text-anchor="start" x="80" y="-324.8" font-family="Times,serif" font-size="14.00">ruby_gem_id :integer</text>
<text text-anchor="start" x="80" y="-309.8" font-family="Times,serif" font-size="14.00">created_at :datetime</text>
<text text-anchor="start" x="80" y="-294.8" font-family="Times,serif" font-size="14.00">updated_at :datetime</text>
</g>
<!-- RubyGem&#45;&gt;GemVersion -->
<g id="edge3" class="edge"><title>RubyGem&#45;&gt;GemVersion</title>
<path fill="none" stroke="#dc4358" d="M189.025,-504.208C178.611,-470.231 167.228,-433.093 157.954,-402.839"/>
<ellipse fill="none" stroke="#dc4358" cx="190.296" cy="-508.354" rx="4.00001" ry="4.00001"/>
<polygon fill="#dc4358" stroke="#dc4358" points="157.952,-402.832 159.324,-391.952 156.487,-398.051 155.022,-393.271 155.022,-393.271 155.022,-393.271 156.487,-398.051 150.719,-394.589 157.952,-402.832 157.952,-402.832"/>
</g>
<!-- FedoraRpm&#45;&gt;Dependency -->
<g id="edge8" class="edge"><title>FedoraRpm&#45;&gt;Dependency</title>
<path fill="none" stroke="#4eed4e" d="M320.861,-258.861C288.02,-230.489 251.108,-198.132 218,-168 217.542,-167.583 217.082,-167.164 216.622,-166.744"/>
<ellipse fill="none" stroke="#4eed4e" cx="323.916" cy="-261.497" rx="4.00002" ry="4.00002"/>
<polygon fill="#4eed4e" stroke="#4eed4e" points="216.458,-166.594 212.134,-156.517 212.775,-163.213 209.091,-159.832 209.091,-159.832 209.091,-159.832 212.775,-163.213 206.048,-163.147 216.458,-166.594 216.458,-166.594"/>
</g>
<!-- RpmVersion -->
<g id="node6" class="node"><title>RpmVersion</title>
<path fill="none" stroke="black" d="M239.5,-16C239.5,-16 358.5,-16 358.5,-16 364.5,-16 370.5,-22 370.5,-28 370.5,-28 370.5,-140 370.5,-140 370.5,-146 364.5,-152 358.5,-152 358.5,-152 239.5,-152 239.5,-152 233.5,-152 227.5,-146 227.5,-140 227.5,-140 227.5,-28 227.5,-28 227.5,-22 233.5,-16 239.5,-16"/>
<text text-anchor="middle" x="299" y="-136.8" font-family="Times,serif" font-size="14.00">RpmVersion</text>
<polyline fill="none" stroke="black" points="227.5,-129 370.5,-129 "/>
<text text-anchor="start" x="235.5" y="-113.8" font-family="Times,serif" font-size="14.00">id :integer</text>
<text text-anchor="start" x="235.5" y="-98.8" font-family="Times,serif" font-size="14.00">fedora_rpm_id :integer</text>
<text text-anchor="start" x="235.5" y="-83.8" font-family="Times,serif" font-size="14.00">rpm_version :string</text>
<text text-anchor="start" x="235.5" y="-68.8" font-family="Times,serif" font-size="14.00">fedora_version :string</text>
<text text-anchor="start" x="235.5" y="-53.8" font-family="Times,serif" font-size="14.00">created_at :datetime</text>
<text text-anchor="start" x="235.5" y="-38.8" font-family="Times,serif" font-size="14.00">updated_at :datetime</text>
<text text-anchor="start" x="235.5" y="-23.8" font-family="Times,serif" font-size="14.00">is_patched :boolean</text>
</g>
<!-- FedoraRpm&#45;&gt;RpmVersion -->
<g id="edge5" class="edge"><title>FedoraRpm&#45;&gt;RpmVersion</title>
<path fill="none" stroke="#8f7128" d="M349.964,-196.594C344.457,-184.536 339.036,-172.666 333.904,-161.428"/>
<ellipse fill="none" stroke="#8f7128" cx="351.772" cy="-200.552" rx="4.00002" ry="4.00002"/>
<polygon fill="#8f7128" stroke="#8f7128" points="333.819,-161.242 333.758,-150.276 331.742,-156.694 329.665,-152.146 329.665,-152.146 329.665,-152.146 331.742,-156.694 325.572,-154.015 333.819,-161.242 333.819,-161.242"/>
</g>
<!-- Bug -->
<g id="node7" class="node"><title>Bug</title>
<path fill="none" stroke="black" d="M400.5,-1C400.5,-1 519.5,-1 519.5,-1 525.5,-1 531.5,-7 531.5,-13 531.5,-13 531.5,-155 531.5,-155 531.5,-161 525.5,-167 519.5,-167 519.5,-167 400.5,-167 400.5,-167 394.5,-167 388.5,-161 388.5,-155 388.5,-155 388.5,-13 388.5,-13 388.5,-7 394.5,-1 400.5,-1"/>
<text text-anchor="middle" x="460" y="-151.8" font-family="Times,serif" font-size="14.00">Bug</text>
<polyline fill="none" stroke="black" points="388.5,-144 531.5,-144 "/>
<text text-anchor="start" x="396.5" y="-128.8" font-family="Times,serif" font-size="14.00">id :integer</text>
<text text-anchor="start" x="396.5" y="-113.8" font-family="Times,serif" font-size="14.00">name :string</text>
<text text-anchor="start" x="396.5" y="-98.8" font-family="Times,serif" font-size="14.00">bz_id :string</text>
<text text-anchor="start" x="396.5" y="-83.8" font-family="Times,serif" font-size="14.00">fedora_rpm_id :integer</text>
<text text-anchor="start" x="396.5" y="-68.8" font-family="Times,serif" font-size="14.00">is_review :boolean</text>
<text text-anchor="start" x="396.5" y="-53.8" font-family="Times,serif" font-size="14.00">created_at :datetime</text>
<text text-anchor="start" x="396.5" y="-38.8" font-family="Times,serif" font-size="14.00">updated_at :datetime</text>
<text text-anchor="start" x="396.5" y="-23.8" font-family="Times,serif" font-size="14.00">last_updated :string</text>
<text text-anchor="start" x="396.5" y="-8.8" font-family="Times,serif" font-size="14.00">is_open :boolean</text>
</g>
<!-- FedoraRpm&#45;&gt;Bug -->
<g id="edge6" class="edge"><title>FedoraRpm&#45;&gt;Bug</title>
<path fill="none" stroke="#942eeb" d="M440.291,-196.245C441.413,-189.916 442.525,-183.639 443.616,-177.481"/>
<ellipse fill="none" stroke="#942eeb" cx="439.581" cy="-200.252" rx="4.00001" ry="4.00001"/>
<polygon fill="#942eeb" stroke="#942eeb" points="443.686,-177.084 449.861,-168.023 444.558,-172.161 445.43,-167.238 445.43,-167.238 445.43,-167.238 444.558,-172.161 440.999,-166.453 443.686,-177.084 443.686,-177.084"/>
</g>
<!-- KojiBuild -->
<g id="node8" class="node"><title>KojiBuild</title>
<path fill="none" stroke="black" d="M561.5,-23.5C561.5,-23.5 680.5,-23.5 680.5,-23.5 686.5,-23.5 692.5,-29.5 692.5,-35.5 692.5,-35.5 692.5,-132.5 692.5,-132.5 692.5,-138.5 686.5,-144.5 680.5,-144.5 680.5,-144.5 561.5,-144.5 561.5,-144.5 555.5,-144.5 549.5,-138.5 549.5,-132.5 549.5,-132.5 549.5,-35.5 549.5,-35.5 549.5,-29.5 555.5,-23.5 561.5,-23.5"/>
<text text-anchor="middle" x="621" y="-129.3" font-family="Times,serif" font-size="14.00">KojiBuild</text>
<polyline fill="none" stroke="black" points="549.5,-121.5 692.5,-121.5 "/>
<text text-anchor="start" x="557.5" y="-106.3" font-family="Times,serif" font-size="14.00">id :integer</text>
<text text-anchor="start" x="557.5" y="-91.3" font-family="Times,serif" font-size="14.00">name :string</text>
<text text-anchor="start" x="557.5" y="-76.3" font-family="Times,serif" font-size="14.00">build_id :string</text>
<text text-anchor="start" x="557.5" y="-61.3" font-family="Times,serif" font-size="14.00">fedora_rpm_id :integer</text>
<text text-anchor="start" x="557.5" y="-46.3" font-family="Times,serif" font-size="14.00">created_at :datetime</text>
<text text-anchor="start" x="557.5" y="-31.3" font-family="Times,serif" font-size="14.00">updated_at :datetime</text>
</g>
<!-- FedoraRpm&#45;&gt;KojiBuild -->
<g id="edge7" class="edge"><title>FedoraRpm&#45;&gt;KojiBuild</title>
<path fill="none" stroke="#4030cf" d="M508.575,-223.621C528.312,-199.286 548.513,-174.377 566.249,-152.508"/>
<ellipse fill="none" stroke="#4030cf" cx="505.779" cy="-227.069" rx="4.00002" ry="4.00002"/>
<polygon fill="#4030cf" stroke="#4030cf" points="566.368,-152.362 576.162,-147.43 569.517,-148.479 572.667,-144.596 572.667,-144.596 572.667,-144.596 569.517,-148.479 569.172,-141.761 566.368,-152.362 566.368,-152.362"/>
</g>
<!-- ActiveRecord::Base -->
<g id="node9" class="node"><title>ActiveRecord::Base</title>
<ellipse fill="none" stroke="black" cx="313" cy="-769" rx="81.3646" ry="18"/>
<text text-anchor="middle" x="313" y="-765.3" font-family="Times,serif" font-size="14.00">ActiveRecord::Base</text>
</g>
<!-- ActiveRecord::Base&#45;&gt;RubyGem -->
<g id="edge4" class="edge"><title>ActiveRecord::Base&#45;&gt;RubyGem</title>
<path fill="none" stroke="black" d="M303.294,-751.067C295.226,-736.99 283.066,-715.775 270.473,-693.805"/>
</g>
<!-- ActiveRecord::Base&#45;&gt;FedoraRpm -->
<g id="edge9" class="edge"><title>ActiveRecord::Base&#45;&gt;FedoraRpm</title>
<path fill="none" stroke="black" d="M317.061,-750.998C327.964,-705.356 358.683,-576.758 382.84,-475.63"/>
</g>
<!-- ActiveRecord::Base&#45;&gt;Dependency -->
<g id="edge10" class="edge"><title>ActiveRecord::Base&#45;&gt;Dependency</title>
<path fill="none" stroke="black" d="M278.337,-752.505C261.498,-745.24 240.869,-736.725 222,-730 169.149,-711.163 138.295,-735.918 101,-694 -44.1923,-530.808 6.93559,-415.114 63,-204 67.0003,-188.936 73.4052,-173.791 80.7222,-159.592"/>
</g>
<!-- ActiveRecord::Base&#45;&gt;GemVersion -->
<g id="edge11" class="edge"><title>ActiveRecord::Base&#45;&gt;GemVersion</title>
<path fill="none" stroke="black" d="M276.867,-752.753C227.818,-731.975 145.982,-696.985 144,-694 83.4002,-602.728 104.989,-466.814 123.537,-393.098"/>
</g>
<!-- ActiveRecord::Base&#45;&gt;RpmVersion -->
<g id="edge12" class="edge"><title>ActiveRecord::Base&#45;&gt;RpmVersion</title>
<path fill="none" stroke="black" d="M312.647,-750.775C310.939,-667.463 303.491,-304.117 300.377,-152.175"/>
</g>
<!-- ActiveRecord::Base&#45;&gt;Bug -->
<g id="edge13" class="edge"><title>ActiveRecord::Base&#45;&gt;Bug</title>
<path fill="none" stroke="black" d="M330.017,-751.249C371.095,-709.453 474.943,-595.315 511,-476 545.97,-360.28 535.307,-322.42 511,-204 508.492,-191.78 504.674,-179.265 500.232,-167.158"/>
</g>
<!-- ActiveRecord::Base&#45;&gt;KojiBuild -->
<g id="edge14" class="edge"><title>ActiveRecord::Base&#45;&gt;KojiBuild</title>
<path fill="none" stroke="black" d="M358.16,-753.929C388.891,-742.278 428.465,-722.901 454,-694 595.73,-533.584 618.411,-263.607 621.194,-144.507"/>
</g>
</g>
</svg>
