<?xml version="1.0" encoding="UTF-8" standalone="no"?>
<!DOCTYPE svg PUBLIC "-//W3C//DTD SVG 1.1//EN"
 "http://www.w3.org/Graphics/SVG/1.1/DTD/svg11.dtd">
<!-- Generated by graphviz version 2.36.0 (20140111.2315)
 -->
<!-- Title: models_diagram Pages: 1 -->
<svg width="779pt" height="816pt"
 viewBox="0.00 0.00 779.07 816.00" xmlns="http://www.w3.org/2000/svg" xmlns:xlink="http://www.w3.org/1999/xlink">
<g id="graph0" class="graph" transform="scale(1 1) rotate(0) translate(4 812)">
<title>models_diagram</title>
<polygon fill="white" stroke="none" points="-4,4 -4,-812 775.073,-812 775.073,4 -4,4"/>
<!-- _diagram_info -->
<g id="node1" class="node"><title>_diagram_info</title>
<text text-anchor="start" x="65.0735" y="-793.6" font-family="Times,serif" font-size="13.00">Models diagram</text>
<text text-anchor="start" x="65.0735" y="-779.6" font-family="Times,serif" font-size="13.00">Date: Jun 02 2014 &#45; 13:17</text>
<text text-anchor="start" x="65.0735" y="-765.6" font-family="Times,serif" font-size="13.00">Migration version: 20140519095419</text>
<text text-anchor="start" x="65.0735" y="-751.6" font-family="Times,serif" font-size="13.00">Generated by RailRoady 1.1.1</text>
<text text-anchor="start" x="65.0735" y="-737.6" font-family="Times,serif" font-size="13.00">http://railroady.prestonlee.com</text>
</g>
<!-- RubyGem -->
<g id="node2" class="node"><title>RubyGem</title>
<path fill="none" stroke="black" d="M203.573,-512.5C203.573,-512.5 310.573,-512.5 310.573,-512.5 316.573,-512.5 322.573,-518.5 322.573,-524.5 322.573,-524.5 322.573,-681.5 322.573,-681.5 322.573,-687.5 316.573,-693.5 310.573,-693.5 310.573,-693.5 203.573,-693.5 203.573,-693.5 197.573,-693.5 191.573,-687.5 191.573,-681.5 191.573,-681.5 191.573,-524.5 191.573,-524.5 191.573,-518.5 197.573,-512.5 203.573,-512.5"/>
<text text-anchor="middle" x="257.073" y="-678.3" font-family="Times,serif" font-size="14.00">RubyGem</text>
<polyline fill="none" stroke="black" points="191.573,-670.5 322.573,-670.5 "/>
<text text-anchor="start" x="199.573" y="-655.3" font-family="Times,serif" font-size="14.00">id :integer</text>
<text text-anchor="start" x="199.573" y="-640.3" font-family="Times,serif" font-size="14.00">name :string</text>
<text text-anchor="start" x="199.573" y="-625.3" font-family="Times,serif" font-size="14.00">description :text</text>
<text text-anchor="start" x="199.573" y="-610.3" font-family="Times,serif" font-size="14.00">homepage :string</text>
<text text-anchor="start" x="199.573" y="-595.3" font-family="Times,serif" font-size="14.00">version :string</text>
<text text-anchor="start" x="199.573" y="-580.3" font-family="Times,serif" font-size="14.00">has_rpm :boolean</text>
<text text-anchor="start" x="199.573" y="-565.3" font-family="Times,serif" font-size="14.00">created_at :datetime</text>
<text text-anchor="start" x="199.573" y="-550.3" font-family="Times,serif" font-size="14.00">updated_at :datetime</text>
<text text-anchor="start" x="199.573" y="-535.3" font-family="Times,serif" font-size="14.00">downloads :integer</text>
<text text-anchor="start" x="199.573" y="-520.3" font-family="Times,serif" font-size="14.00">source_uri :string</text>
</g>
<!-- FedoraRpm -->
<g id="node3" class="node"><title>FedoraRpm</title>
<path fill="none" stroke="black" d="M429.073,-204.5C429.073,-204.5 581.073,-204.5 581.073,-204.5 587.073,-204.5 593.073,-210.5 593.073,-216.5 593.073,-216.5 593.073,-463.5 593.073,-463.5 593.073,-469.5 587.073,-475.5 581.073,-475.5 581.073,-475.5 429.073,-475.5 429.073,-475.5 423.073,-475.5 417.073,-469.5 417.073,-463.5 417.073,-463.5 417.073,-216.5 417.073,-216.5 417.073,-210.5 423.073,-204.5 429.073,-204.5"/>
<text text-anchor="middle" x="505.073" y="-460.3" font-family="Times,serif" font-size="14.00">FedoraRpm</text>
<polyline fill="none" stroke="black" points="417.073,-452.5 593.073,-452.5 "/>
<text text-anchor="start" x="425.073" y="-437.3" font-family="Times,serif" font-size="14.00">id :integer</text>
<text text-anchor="start" x="425.073" y="-422.3" font-family="Times,serif" font-size="14.00">name :string</text>
<text text-anchor="start" x="425.073" y="-407.3" font-family="Times,serif" font-size="14.00">source_uri :string</text>
<text text-anchor="start" x="425.073" y="-392.3" font-family="Times,serif" font-size="14.00">last_commit_message :string</text>
<text text-anchor="start" x="425.073" y="-377.3" font-family="Times,serif" font-size="14.00">created_at :datetime</text>
<text text-anchor="start" x="425.073" y="-362.3" font-family="Times,serif" font-size="14.00">updated_at :datetime</text>
<text text-anchor="start" x="425.073" y="-347.3" font-family="Times,serif" font-size="14.00">author :string</text>
<text text-anchor="start" x="425.073" y="-332.3" font-family="Times,serif" font-size="14.00">last_committer :string</text>
<text text-anchor="start" x="425.073" y="-317.3" font-family="Times,serif" font-size="14.00">last_commit_date :datetime</text>
<text text-anchor="start" x="425.073" y="-302.3" font-family="Times,serif" font-size="14.00">last_commit_sha :string</text>
<text text-anchor="start" x="425.073" y="-287.3" font-family="Times,serif" font-size="14.00">homepage :string</text>
<text text-anchor="start" x="425.073" y="-272.3" font-family="Times,serif" font-size="14.00">ruby_gem_id :integer</text>
<text text-anchor="start" x="425.073" y="-257.3" font-family="Times,serif" font-size="14.00">commits :integer</text>
<text text-anchor="start" x="425.073" y="-242.3" font-family="Times,serif" font-size="14.00">fedora_user :string</text>
<text text-anchor="start" x="425.073" y="-227.3" font-family="Times,serif" font-size="14.00">summary :text</text>
<text text-anchor="start" x="425.073" y="-212.3" font-family="Times,serif" font-size="14.00">description :text</text>
</g>
<!-- RubyGem&#45;&gt;FedoraRpm -->
<g id="edge1" class="edge"><title>RubyGem&#45;&gt;FedoraRpm</title>
<path fill="none" stroke="#60abc1" d="M328.697,-526.622C354.432,-499.538 383.855,-468.573 411.197,-439.797"/>
<ellipse fill="none" stroke="#60abc1" cx="325.637" cy="-529.842" rx="4.00002" ry="4.00002"/>
<ellipse fill="#60abc1" stroke="#60abc1" cx="414.243" cy="-436.592" rx="4.00002" ry="4.00002"/>
</g>
<!-- Dependency -->
<g id="node4" class="node"><title>Dependency</title>
<path fill="none" stroke="black" d="M132.573,-8.5C132.573,-8.5 265.573,-8.5 265.573,-8.5 271.573,-8.5 277.573,-14.5 277.573,-20.5 277.573,-20.5 277.573,-147.5 277.573,-147.5 277.573,-153.5 271.573,-159.5 265.573,-159.5 265.573,-159.5 132.573,-159.5 132.573,-159.5 126.573,-159.5 120.573,-153.5 120.573,-147.5 120.573,-147.5 120.573,-20.5 120.573,-20.5 120.573,-14.5 126.573,-8.5 132.573,-8.5"/>
<text text-anchor="middle" x="199.073" y="-144.3" font-family="Times,serif" font-size="14.00">Dependency</text>
<polyline fill="none" stroke="black" points="120.573,-136.5 277.573,-136.5 "/>
<text text-anchor="start" x="128.573" y="-121.3" font-family="Times,serif" font-size="14.00">id :integer</text>
<text text-anchor="start" x="128.573" y="-106.3" font-family="Times,serif" font-size="14.00">environment :string</text>
<text text-anchor="start" x="128.573" y="-91.3" font-family="Times,serif" font-size="14.00">dependent :string</text>
<text text-anchor="start" x="128.573" y="-76.3" font-family="Times,serif" font-size="14.00">dependent_version :string</text>
<text text-anchor="start" x="128.573" y="-61.3" font-family="Times,serif" font-size="14.00">created_at :datetime</text>
<text text-anchor="start" x="128.573" y="-46.3" font-family="Times,serif" font-size="14.00">updated_at :datetime</text>
<text text-anchor="start" x="128.573" y="-31.3" font-family="Times,serif" font-size="14.00">package_id :integer</text>
<text text-anchor="start" x="128.573" y="-16.3" font-family="Times,serif" font-size="14.00">package_type :string</text>
</g>
<!-- RubyGem&#45;&gt;Dependency -->
<g id="edge2" class="edge"><title>RubyGem&#45;&gt;Dependency</title>
<path fill="none" stroke="#08f739" d="M224.203,-504.236C221.811,-494.77 219.703,-485.25 218.073,-476 199.738,-371.91 196.668,-249.991 197.083,-170.318"/>
<ellipse fill="none" stroke="#08f739" cx="225.264" cy="-508.298" rx="4.00001" ry="4.00001"/>
<polygon fill="#08f739" stroke="#08f739" points="197.086,-169.848 201.658,-159.881 197.122,-164.848 197.158,-159.848 197.158,-159.848 197.158,-159.848 197.122,-164.848 192.659,-159.815 197.086,-169.848 197.086,-169.848"/>
</g>
<!-- HistoricalGem -->
<g id="node6" class="node"><title>HistoricalGem</title>
<path fill="none" stroke="black" d="M51.5735,-279.5C51.5735,-279.5 158.573,-279.5 158.573,-279.5 164.573,-279.5 170.573,-285.5 170.573,-291.5 170.573,-291.5 170.573,-388.5 170.573,-388.5 170.573,-394.5 164.573,-400.5 158.573,-400.5 158.573,-400.5 51.5735,-400.5 51.5735,-400.5 45.5735,-400.5 39.5735,-394.5 39.5735,-388.5 39.5735,-388.5 39.5735,-291.5 39.5735,-291.5 39.5735,-285.5 45.5735,-279.5 51.5735,-279.5"/>
<text text-anchor="middle" x="105.073" y="-385.3" font-family="Times,serif" font-size="14.00">HistoricalGem</text>
<polyline fill="none" stroke="black" points="39.5735,-377.5 170.573,-377.5 "/>
<text text-anchor="start" x="47.5735" y="-362.3" font-family="Times,serif" font-size="14.00">id :integer</text>
<text text-anchor="start" x="47.5735" y="-347.3" font-family="Times,serif" font-size="14.00">gem_id :integer</text>
<text text-anchor="start" x="47.5735" y="-332.3" font-family="Times,serif" font-size="14.00">version :string</text>
<text text-anchor="start" x="47.5735" y="-317.3" font-family="Times,serif" font-size="14.00">build_date :string</text>
<text text-anchor="start" x="47.5735" y="-302.3" font-family="Times,serif" font-size="14.00">created_at :datetime</text>
<text text-anchor="start" x="47.5735" y="-287.3" font-family="Times,serif" font-size="14.00">updated_at :datetime</text>
</g>
<!-- RubyGem&#45;&gt;HistoricalGem -->
<g id="edge3" class="edge"><title>RubyGem&#45;&gt;HistoricalGem</title>
<path fill="none" stroke="#c525ad" d="M200.707,-505.213C182.196,-473.427 162.016,-438.776 144.984,-409.531"/>
<ellipse fill="none" stroke="#c525ad" cx="202.751" cy="-508.722" rx="4.00002" ry="4.00002"/>
<polygon fill="#c525ad" stroke="#c525ad" points="144.838,-409.28 143.694,-398.374 142.322,-404.959 139.805,-400.638 139.805,-400.638 139.805,-400.638 142.322,-404.959 135.917,-402.903 144.838,-409.28 144.838,-409.28"/>
</g>
<!-- GemVersion -->
<g id="node7" class="node"><title>GemVersion</title>
<path fill="none" stroke="black" d="M239.073,-287C239.073,-287 349.073,-287 349.073,-287 355.073,-287 361.073,-293 361.073,-299 361.073,-299 361.073,-381 361.073,-381 361.073,-387 355.073,-393 349.073,-393 349.073,-393 239.073,-393 239.073,-393 233.073,-393 227.073,-387 227.073,-381 227.073,-381 227.073,-299 227.073,-299 227.073,-293 233.073,-287 239.073,-287"/>
<text text-anchor="middle" x="294.073" y="-377.8" font-family="Times,serif" font-size="14.00">GemVersion</text>
<polyline fill="none" stroke="black" points="227.073,-370 361.073,-370 "/>
<text text-anchor="start" x="235.073" y="-354.8" font-family="Times,serif" font-size="14.00">id :integer</text>
<text text-anchor="start" x="235.073" y="-339.8" font-family="Times,serif" font-size="14.00">gem_version :string</text>
<text text-anchor="start" x="235.073" y="-324.8" font-family="Times,serif" font-size="14.00">ruby_gem_id :integer</text>
<text text-anchor="start" x="235.073" y="-309.8" font-family="Times,serif" font-size="14.00">created_at :datetime</text>
<text text-anchor="start" x="235.073" y="-294.8" font-family="Times,serif" font-size="14.00">updated_at :datetime</text>
</g>
<!-- RubyGem&#45;&gt;GemVersion -->
<g id="edge4" class="edge"><title>RubyGem&#45;&gt;GemVersion</title>
<path fill="none" stroke="#82afef" d="M270.937,-504.208C275.732,-470.378 280.973,-433.415 285.251,-403.232"/>
<ellipse fill="none" stroke="#82afef" cx="270.368" cy="-508.218" rx="4.00001" ry="4.00001"/>
<polygon fill="#82afef" stroke="#82afef" points="285.26,-403.172 291.119,-393.902 285.962,-398.221 286.663,-393.271 286.663,-393.271 286.663,-393.271 285.962,-398.221 282.208,-392.639 285.26,-403.172 285.26,-403.172"/>
</g>
<!-- FedoraRpm&#45;&gt;Dependency -->
<g id="edge9" class="edge"><title>FedoraRpm&#45;&gt;Dependency</title>
<path fill="none" stroke="#c2a08f" d="M410.903,-237.294C397.757,-225.392 383.975,-213.962 370.073,-204 340.669,-182.929 327.324,-187.838 297.073,-168 293.355,-165.561 289.621,-162.999 285.896,-160.347"/>
<ellipse fill="none" stroke="#c2a08f" cx="413.949" cy="-240.088" rx="4.00002" ry="4.00002"/>
<polygon fill="#c2a08f" stroke="#c2a08f" points="285.843,-160.308 280.421,-150.776 281.805,-157.359 277.767,-154.41 277.767,-154.41 277.767,-154.41 281.805,-157.359 275.113,-158.044 285.843,-160.308 285.843,-160.308"/>
</g>
<!-- Build -->
<g id="node5" class="node"><title>Build</title>
<path fill="none" stroke="black" d="M318.573,-23.5C318.573,-23.5 437.573,-23.5 437.573,-23.5 443.573,-23.5 449.573,-29.5 449.573,-35.5 449.573,-35.5 449.573,-132.5 449.573,-132.5 449.573,-138.5 443.573,-144.5 437.573,-144.5 437.573,-144.5 318.573,-144.5 318.573,-144.5 312.573,-144.5 306.573,-138.5 306.573,-132.5 306.573,-132.5 306.573,-35.5 306.573,-35.5 306.573,-29.5 312.573,-23.5 318.573,-23.5"/>
<text text-anchor="middle" x="378.073" y="-129.3" font-family="Times,serif" font-size="14.00">Build</text>
<polyline fill="none" stroke="black" points="306.573,-121.5 449.573,-121.5 "/>
<text text-anchor="start" x="314.573" y="-106.3" font-family="Times,serif" font-size="14.00">id :integer</text>
<text text-anchor="start" x="314.573" y="-91.3" font-family="Times,serif" font-size="14.00">name :string</text>
<text text-anchor="start" x="314.573" y="-76.3" font-family="Times,serif" font-size="14.00">build_id :string</text>
<text text-anchor="start" x="314.573" y="-61.3" font-family="Times,serif" font-size="14.00">fedora_rpm_id :integer</text>
<text text-anchor="start" x="314.573" y="-46.3" font-family="Times,serif" font-size="14.00">created_at :datetime</text>
<text text-anchor="start" x="314.573" y="-31.3" font-family="Times,serif" font-size="14.00">updated_at :datetime</text>
</g>
<!-- FedoraRpm&#45;&gt;Build -->
<g id="edge8" class="edge"><title>FedoraRpm&#45;&gt;Build</title>
<path fill="none" stroke="#917daa" d="M434.003,-196.859C426.543,-181.94 419.225,-167.303 412.468,-153.789"/>
<ellipse fill="none" stroke="#917daa" cx="435.88" cy="-200.613" rx="4.00002" ry="4.00002"/>
<polygon fill="#917daa" stroke="#917daa" points="412.357,-153.566 411.909,-142.609 410.121,-149.094 407.884,-144.622 407.884,-144.622 407.884,-144.622 410.121,-149.094 403.859,-146.634 412.357,-153.566 412.357,-153.566"/>
</g>
<!-- RpmVersion -->
<g id="node8" class="node"><title>RpmVersion</title>
<path fill="none" stroke="black" d="M479.573,-16C479.573,-16 598.573,-16 598.573,-16 604.573,-16 610.573,-22 610.573,-28 610.573,-28 610.573,-140 610.573,-140 610.573,-146 604.573,-152 598.573,-152 598.573,-152 479.573,-152 479.573,-152 473.573,-152 467.573,-146 467.573,-140 467.573,-140 467.573,-28 467.573,-28 467.573,-22 473.573,-16 479.573,-16"/>
<text text-anchor="middle" x="539.073" y="-136.8" font-family="Times,serif" font-size="14.00">RpmVersion</text>
<polyline fill="none" stroke="black" points="467.573,-129 610.573,-129 "/>
<text text-anchor="start" x="475.573" y="-113.8" font-family="Times,serif" font-size="14.00">id :integer</text>
<text text-anchor="start" x="475.573" y="-98.8" font-family="Times,serif" font-size="14.00">fedora_rpm_id :integer</text>
<text text-anchor="start" x="475.573" y="-83.8" font-family="Times,serif" font-size="14.00">rpm_version :string</text>
<text text-anchor="start" x="475.573" y="-68.8" font-family="Times,serif" font-size="14.00">fedora_version :string</text>
<text text-anchor="start" x="475.573" y="-53.8" font-family="Times,serif" font-size="14.00">created_at :datetime</text>
<text text-anchor="start" x="475.573" y="-38.8" font-family="Times,serif" font-size="14.00">updated_at :datetime</text>
<text text-anchor="start" x="475.573" y="-23.8" font-family="Times,serif" font-size="14.00">is_patched :boolean</text>
</g>
<!-- FedoraRpm&#45;&gt;RpmVersion -->
<g id="edge6" class="edge"><title>FedoraRpm&#45;&gt;RpmVersion</title>
<path fill="none" stroke="#0d7d0d" d="M524.192,-196.173C525.743,-184.587 527.27,-173.18 528.72,-162.345"/>
<ellipse fill="none" stroke="#0d7d0d" cx="523.65" cy="-200.226" rx="4.00001" ry="4.00001"/>
<polygon fill="#0d7d0d" stroke="#0d7d0d" points="528.759,-162.057 534.546,-152.743 529.422,-157.101 530.085,-152.146 530.085,-152.146 530.085,-152.146 529.422,-157.101 525.625,-151.549 528.759,-162.057 528.759,-162.057"/>
</g>
<!-- Bug -->
<g id="node9" class="node"><title>Bug</title>
<path fill="none" stroke="black" d="M640.573,-1C640.573,-1 759.573,-1 759.573,-1 765.573,-1 771.573,-7 771.573,-13 771.573,-13 771.573,-155 771.573,-155 771.573,-161 765.573,-167 759.573,-167 759.573,-167 640.573,-167 640.573,-167 634.573,-167 628.573,-161 628.573,-155 628.573,-155 628.573,-13 628.573,-13 628.573,-7 634.573,-1 640.573,-1"/>
<text text-anchor="middle" x="700.073" y="-151.8" font-family="Times,serif" font-size="14.00">Bug</text>
<polyline fill="none" stroke="black" points="628.573,-144 771.573,-144 "/>
<text text-anchor="start" x="636.573" y="-128.8" font-family="Times,serif" font-size="14.00">id :integer</text>
<text text-anchor="start" x="636.573" y="-113.8" font-family="Times,serif" font-size="14.00">name :string</text>
<text text-anchor="start" x="636.573" y="-98.8" font-family="Times,serif" font-size="14.00">bz_id :string</text>
<text text-anchor="start" x="636.573" y="-83.8" font-family="Times,serif" font-size="14.00">fedora_rpm_id :integer</text>
<text text-anchor="start" x="636.573" y="-68.8" font-family="Times,serif" font-size="14.00">is_review :boolean</text>
<text text-anchor="start" x="636.573" y="-53.8" font-family="Times,serif" font-size="14.00">created_at :datetime</text>
<text text-anchor="start" x="636.573" y="-38.8" font-family="Times,serif" font-size="14.00">updated_at :datetime</text>
<text text-anchor="start" x="636.573" y="-23.8" font-family="Times,serif" font-size="14.00">last_updated :string</text>
<text text-anchor="start" x="636.573" y="-8.8" font-family="Times,serif" font-size="14.00">is_open :boolean</text>
</g>
<!-- FedoraRpm&#45;&gt;Bug -->
<g id="edge7" class="edge"><title>FedoraRpm&#45;&gt;Bug</title>
<path fill="none" stroke="#12e353" d="M598.351,-217.501C609.262,-203.288 620.243,-188.984 630.748,-175.301"/>
<ellipse fill="none" stroke="#12e353" cx="595.596" cy="-221.088" rx="4.00002" ry="4.00002"/>
<polygon fill="#12e353" stroke="#12e353" points="630.783,-175.255 640.442,-170.063 633.828,-171.289 636.873,-167.323 636.873,-167.323 636.873,-167.323 633.828,-171.289 633.304,-164.582 630.783,-175.255 630.783,-175.255"/>
</g>
<!-- ActiveRecord::Base -->
<g id="node10" class="node"><title>ActiveRecord::Base</title>
<ellipse fill="none" stroke="black" cx="370.073" cy="-769" rx="81.3646" ry="18"/>
<text text-anchor="middle" x="370.073" y="-765.3" font-family="Times,serif" font-size="14.00">ActiveRecord::Base</text>
</g>
<!-- ActiveRecord::Base&#45;&gt;RubyGem -->
<g id="edge5" class="edge"><title>ActiveRecord::Base&#45;&gt;RubyGem</title>
<path fill="none" stroke="black" d="M358.406,-751.067C348.707,-736.99 334.089,-715.775 318.951,-693.805"/>
</g>
<!-- ActiveRecord::Base&#45;&gt;FedoraRpm -->
<g id="edge10" class="edge"><title>ActiveRecord::Base&#45;&gt;FedoraRpm</title>
<path fill="none" stroke="black" d="M378.494,-750.934C385.611,-736.111 395.782,-713.95 403.073,-694 429.022,-623 452.803,-542.094 470.863,-475.665"/>
</g>
<!-- ActiveRecord::Base&#45;&gt;Dependency -->
<g id="edge11" class="edge"><title>ActiveRecord::Base&#45;&gt;Dependency</title>
<path fill="none" stroke="black" d="M336.93,-752.368C319.92,-744.808 298.698,-736.079 279.073,-730 204.054,-706.763 165.104,-745.801 106.073,-694 28.9495,-626.322 47.2027,-577.168 30.0735,-476 9.89241,-356.808 -25.6055,-311.303 30.0735,-204 49.328,-166.893 86.0572,-138.915 120.369,-119.441"/>
</g>
<!-- ActiveRecord::Base&#45;&gt;Build -->
<g id="edge12" class="edge"><title>ActiveRecord::Base&#45;&gt;Build</title>
<path fill="none" stroke="black" d="M370.275,-750.775C371.267,-666.065 375.651,-291.844 377.374,-144.707"/>
</g>
<!-- ActiveRecord::Base&#45;&gt;HistoricalGem -->
<g id="edge13" class="edge"><title>ActiveRecord::Base&#45;&gt;HistoricalGem</title>
<path fill="none" stroke="black" d="M334.336,-752.686C317.615,-745.622 297.391,-737.22 279.073,-730 236.293,-713.137 212.225,-728.72 182.073,-694 110.407,-611.475 100.628,-477.748 101.69,-400.755"/>
</g>
<!-- ActiveRecord::Base&#45;&gt;GemVersion -->
<g id="edge14" class="edge"><title>ActiveRecord::Base&#45;&gt;GemVersion</title>
<path fill="none" stroke="black" d="M367.836,-750.862C362.368,-709.602 347.563,-601.533 331.073,-512 323.701,-471.971 313.909,-426.996 306.251,-393.22"/>
</g>
<!-- ActiveRecord::Base&#45;&gt;RpmVersion -->
<g id="edge15" class="edge"><title>ActiveRecord::Base&#45;&gt;RpmVersion</title>
<path fill="none" stroke="black" d="M390.882,-751.401C439.817,-710.799 561.073,-600.633 601.073,-476 638.016,-360.894 629.827,-321.419 601.073,-204 596.779,-186.464 589.403,-168.639 581.204,-152.308"/>
</g>
<!-- ActiveRecord::Base&#45;&gt;Bug -->
<g id="edge16" class="edge"><title>ActiveRecord::Base&#45;&gt;Bug</title>
<path fill="none" stroke="black" d="M422.845,-755.308C458.539,-744.334 504.561,-725.199 535.073,-694 676.383,-549.51 699.711,-296.967 701.719,-167.168"/>
</g>
</g>
</svg>
