<?xml version="1.0" encoding="UTF-8" standalone="no"?>
<!DOCTYPE svg PUBLIC "-//W3C//DTD SVG 1.1//EN"
 "http://www.w3.org/Graphics/SVG/1.1/DTD/svg11.dtd">
<!-- Generated by graphviz version 2.36.0 (20140111.2315)
 -->
<!-- Title: models_diagram Pages: 1 -->
<svg width="576pt" height="302pt"
 viewBox="0.00 0.00 575.54 302.00" xmlns="http://www.w3.org/2000/svg" xmlns:xlink="http://www.w3.org/1999/xlink">
<g id="graph0" class="graph" transform="scale(1 1) rotate(0) translate(4 298)">
<title>models_diagram</title>
<polygon fill="white" stroke="none" points="-4,4 -4,-298 571.545,-298 571.545,4 -4,4"/>
<!-- _diagram_info -->
<g id="node1" class="node"><title>_diagram_info</title>
<text text-anchor="start" x="13.5445" y="-279.6" font-family="Times,serif" font-size="13.00">Models diagram</text>
<text text-anchor="start" x="13.5445" y="-265.6" font-family="Times,serif" font-size="13.00">Date: Jun 02 2014 &#45; 13:17</text>
<text text-anchor="start" x="13.5445" y="-251.6" font-family="Times,serif" font-size="13.00">Migration version: 20140519095419</text>
<text text-anchor="start" x="13.5445" y="-237.6" font-family="Times,serif" font-size="13.00">Generated by RailRoady 1.1.1</text>
<text text-anchor="start" x="13.5445" y="-223.6" font-family="Times,serif" font-size="13.00">http://railroady.prestonlee.com</text>
</g>
<!-- RubyGem -->
<g id="node2" class="node"><title>RubyGem</title>
<ellipse fill="none" stroke="black" cx="224.545" cy="-162" rx="47.169" ry="18"/>
<text text-anchor="middle" x="224.545" y="-158.3" font-family="Times,serif" font-size="14.00">RubyGem</text>
</g>
<!-- FedoraRpm -->
<g id="node3" class="node"><title>FedoraRpm</title>
<ellipse fill="none" stroke="black" cx="418.545" cy="-90" rx="52.4675" ry="18"/>
<text text-anchor="middle" x="418.545" y="-86.3" font-family="Times,serif" font-size="14.00">FedoraRpm</text>
</g>
<!-- RubyGem&#45;&gt;FedoraRpm -->
<g id="edge1" class="edge"><title>RubyGem&#45;&gt;FedoraRpm</title>
<path fill="none" stroke="#c7d203" d="M265.58,-146.193C298.033,-134.484 343.19,-118.19 376.023,-106.343"/>
<ellipse fill="none" stroke="#c7d203" cx="261.657" cy="-147.609" rx="4.00001" ry="4.00001"/>
<ellipse fill="#c7d203" stroke="#c7d203" cx="379.906" cy="-104.942" rx="4.00001" ry="4.00001"/>
</g>
<!-- Dependency -->
<g id="node4" class="node"><title>Dependency</title>
<ellipse fill="none" stroke="black" cx="169.545" cy="-18" rx="54.3924" ry="18"/>
<text text-anchor="middle" x="169.545" y="-14.3" font-family="Times,serif" font-size="14.00">Dependency</text>
</g>
<!-- RubyGem&#45;&gt;Dependency -->
<g id="edge2" class="edge"><title>RubyGem&#45;&gt;Dependency</title>
<path fill="none" stroke="#f752b9" d="M205.972,-137.865C199.619,-128.968 192.999,-118.435 188.545,-108 180.131,-88.2932 175.3,-64.4881 172.616,-46.4579"/>
<ellipse fill="none" stroke="#f752b9" cx="208.362" cy="-141.103" rx="4.00002" ry="4.00002"/>
<polygon fill="#f752b9" stroke="#f752b9" points="172.586,-46.2348 175.701,-35.7206 171.914,-41.2801 171.242,-36.3255 171.242,-36.3255 171.242,-36.3255 171.914,-41.2801 166.783,-36.9304 172.586,-46.2348 172.586,-46.2348"/>
</g>
<!-- HistoricalGem -->
<g id="node6" class="node"><title>HistoricalGem</title>
<ellipse fill="none" stroke="black" cx="78.5445" cy="-90" rx="63.0666" ry="18"/>
<text text-anchor="middle" x="78.5445" y="-86.3" font-family="Times,serif" font-size="14.00">HistoricalGem</text>
</g>
<!-- RubyGem&#45;&gt;HistoricalGem -->
<g id="edge3" class="edge"><title>RubyGem&#45;&gt;HistoricalGem</title>
<path fill="none" stroke="#6df7be" d="M189.097,-144.005C167.777,-133.783 140.584,-120.745 118.503,-110.158"/>
<ellipse fill="none" stroke="#6df7be" cx="192.787" cy="-145.774" rx="4.00002" ry="4.00002"/>
<polygon fill="#6df7be" stroke="#6df7be" points="118.402,-110.11 111.33,-101.729 113.893,-107.948 109.385,-105.786 109.385,-105.786 109.385,-105.786 113.893,-107.948 107.439,-109.844 118.402,-110.11 118.402,-110.11"/>
</g>
<!-- GemVersion -->
<g id="node7" class="node"><title>GemVersion</title>
<ellipse fill="none" stroke="black" cx="253.545" cy="-90" rx="55.3436" ry="18"/>
<text text-anchor="middle" x="253.545" y="-86.3" font-family="Times,serif" font-size="14.00">GemVersion</text>
</g>
<!-- RubyGem&#45;&gt;GemVersion -->
<g id="edge4" class="edge"><title>RubyGem&#45;&gt;GemVersion</title>
<path fill="none" stroke="#2bedd4" d="M234.675,-136.548C237.21,-130.428 239.942,-123.835 242.518,-117.616"/>
<ellipse fill="none" stroke="#2bedd4" cx="233.096" cy="-140.36" rx="4.00002" ry="4.00002"/>
<polygon fill="#2bedd4" stroke="#2bedd4" points="242.56,-117.514 250.545,-109.998 244.474,-112.895 246.388,-108.275 246.388,-108.275 246.388,-108.275 244.474,-112.895 242.23,-106.553 242.56,-117.514 242.56,-117.514"/>
</g>
<!-- FedoraRpm&#45;&gt;Dependency -->
<g id="edge9" class="edge"><title>FedoraRpm&#45;&gt;Dependency</title>
<path fill="none" stroke="#24926a" d="M371.507,-75.7767C328.068,-63.5649 263.752,-45.4841 219.429,-33.0238"/>
<ellipse fill="none" stroke="#24926a" cx="375.514" cy="-76.9029" rx="4.00001" ry="4.00001"/>
<polygon fill="#24926a" stroke="#24926a" points="219.36,-33.0045 210.951,-25.966 214.547,-31.6513 209.733,-30.298 209.733,-30.298 209.733,-30.298 214.547,-31.6513 208.515,-34.6301 219.36,-33.0045 219.36,-33.0045"/>
</g>
<!-- Build -->
<g id="node5" class="node"><title>Build</title>
<ellipse fill="none" stroke="black" cx="335.545" cy="-18" rx="30.3206" ry="18"/>
<text text-anchor="middle" x="335.545" y="-14.3" font-family="Times,serif" font-size="14.00">Build</text>
</g>
<!-- FedoraRpm&#45;&gt;Build -->
<g id="edge8" class="edge"><title>FedoraRpm&#45;&gt;Build</title>
<path fill="none" stroke="#e7f40c" d="M393.422,-67.8126C382.817,-58.8685 370.512,-48.4909 359.982,-39.61"/>
<ellipse fill="none" stroke="#e7f40c" cx="396.653" cy="-70.5371" rx="4.00002" ry="4.00002"/>
<polygon fill="#e7f40c" stroke="#e7f40c" points="359.977,-39.606 355.234,-29.719 356.155,-36.3825 352.333,-33.159 352.333,-33.159 352.333,-33.159 356.155,-36.3825 349.432,-36.5989 359.977,-39.606 359.977,-39.606"/>
</g>
<!-- RpmVersion -->
<g id="node8" class="node"><title>RpmVersion</title>
<ellipse fill="none" stroke="black" cx="439.545" cy="-18" rx="55.3436" ry="18"/>
<text text-anchor="middle" x="439.545" y="-14.3" font-family="Times,serif" font-size="14.00">RpmVersion</text>
</g>
<!-- FedoraRpm&#45;&gt;RpmVersion -->
<g id="edge6" class="edge"><title>FedoraRpm&#45;&gt;RpmVersion</title>
<path fill="none" stroke="#c9ec0c" d="M425.964,-64.2675C427.743,-58.34 429.65,-51.9814 431.457,-45.9587"/>
<ellipse fill="none" stroke="#c9ec0c" cx="424.777" cy="-68.2236" rx="4.00001" ry="4.00001"/>
<polygon fill="#c9ec0c" stroke="#c9ec0c" points="431.488,-45.8536 438.672,-37.5684 432.925,-41.0644 434.362,-36.2753 434.362,-36.2753 434.362,-36.2753 432.925,-41.0644 430.052,-34.9822 431.488,-45.8536 431.488,-45.8536"/>
</g>
<!-- Bug -->
<g id="node9" class="node"><title>Bug</title>
<ellipse fill="none" stroke="black" cx="540.545" cy="-18" rx="27" ry="18"/>
<text text-anchor="middle" x="540.545" y="-14.3" font-family="Times,serif" font-size="14.00">Bug</text>
</g>
<!-- FedoraRpm&#45;&gt;Bug -->
<g id="edge7" class="edge"><title>FedoraRpm&#45;&gt;Bug</title>
<path fill="none" stroke="#eff9fe" d="M451.362,-70.1705C470.213,-59.3539 493.668,-45.8964 511.792,-35.4974"/>
<ellipse fill="none" stroke="#eff9fe" cx="447.887" cy="-72.1641" rx="4.00002" ry="4.00002"/>
<polygon fill="#eff9fe" stroke="#eff9fe" points="512.057,-35.3451 522.971,-34.2715 516.394,-32.8567 520.731,-30.3684 520.731,-30.3684 520.731,-30.3684 516.394,-32.8567 518.492,-26.4652 512.057,-35.3451 512.057,-35.3451"/>
</g>
<!-- ActiveRecord::Base -->
<g id="node10" class="node"><title>ActiveRecord::Base</title>
<ellipse fill="none" stroke="black" cx="318.545" cy="-255" rx="81.3646" ry="18"/>
<text text-anchor="middle" x="318.545" y="-251.3" font-family="Times,serif" font-size="14.00">ActiveRecord::Base</text>
</g>
<!-- ActiveRecord::Base&#45;&gt;RubyGem -->
<g id="edge5" class="edge"><title>ActiveRecord::Base&#45;&gt;RubyGem</title>
<path fill="none" stroke="black" d="M301.303,-237.309C284.131,-220.685 257.954,-195.343 241.046,-178.975"/>
</g>
<!-- ActiveRecord::Base&#45;&gt;FedoraRpm -->
<g id="edge10" class="edge"><title>ActiveRecord::Base&#45;&gt;FedoraRpm</title>
<path fill="none" stroke="black" d="M329.057,-236.864C348.313,-205.477 389.022,-139.122 408.173,-107.906"/>
</g>
<!-- ActiveRecord::Base&#45;&gt;Dependency -->
<g id="edge11" class="edge"><title>ActiveRecord::Base&#45;&gt;Dependency</title>
<path fill="none" stroke="black" d="M283.323,-238.662C266.536,-231.514 246.111,-223.051 227.545,-216 125.343,-177.188 59.6895,-203.536 6.54453,-108 -1.23349,-94.0178 -2.85867,-84.9453 6.54453,-72 31.2903,-37.9328 78.4794,-25.3335 115.741,-20.8781"/>
</g>
<!-- ActiveRecord::Base&#45;&gt;Build -->
<g id="edge12" class="edge"><title>ActiveRecord::Base&#45;&gt;Build</title>
<path fill="none" stroke="black" d="M319.795,-236.72C322.946,-193.155 331.187,-79.2374 334.316,-35.9885"/>
</g>
<!-- ActiveRecord::Base&#45;&gt;HistoricalGem -->
<g id="edge13" class="edge"><title>ActiveRecord::Base&#45;&gt;HistoricalGem</title>
<path fill="none" stroke="black" d="M279.986,-239.049C248.513,-225.915 203.664,-205.022 168.545,-180 138.478,-158.578 109.114,-126.943 92.4791,-107.726"/>
</g>
<!-- ActiveRecord::Base&#45;&gt;GemVersion -->
<g id="edge14" class="edge"><title>ActiveRecord::Base&#45;&gt;GemVersion</title>
<path fill="none" stroke="black" d="M313.463,-236.954C306.764,-215.094 294.217,-176.169 280.545,-144 275.293,-131.645 268.413,-118.171 262.912,-107.9"/>
</g>
<!-- ActiveRecord::Base&#45;&gt;RpmVersion -->
<g id="edge15" class="edge"><title>ActiveRecord::Base&#45;&gt;RpmVersion</title>
<path fill="none" stroke="black" d="M347.675,-238.121C386.257,-215.218 452.564,-168.888 479.545,-108 486.026,-93.3718 484.627,-87.1713 479.545,-72 474.931,-58.2272 465.169,-45.1729 456.444,-35.4662"/>
</g>
<!-- ActiveRecord::Base&#45;&gt;Bug -->
<g id="edge16" class="edge"><title>ActiveRecord::Base&#45;&gt;Bug</title>
<path fill="none" stroke="black" d="M358.987,-239.357C388.523,-227.078 428.049,-207.172 455.545,-180 498.71,-137.343 524.94,-68.109 535.357,-36.1581"/>
</g>
</g>
</svg>
