<?xml version="1.0" encoding="UTF-8" standalone="no"?>
<!DOCTYPE svg PUBLIC "-//W3C//DTD SVG 1.1//EN"
 "http://www.w3.org/Graphics/SVG/1.1/DTD/svg11.dtd">
<!-- Generated by graphviz version 2.36.0 (20140111.2315)
 -->
<!-- Title: models_diagram Pages: 1 -->
<svg width="560pt" height="302pt"
 viewBox="0.00 0.00 560.00 302.00" xmlns="http://www.w3.org/2000/svg" xmlns:xlink="http://www.w3.org/1999/xlink">
<g id="graph0" class="graph" transform="scale(1 1) rotate(0) translate(4 298)">
<title>models_diagram</title>
<polygon fill="white" stroke="none" points="-4,4 -4,-298 556,-298 556,4 -4,4"/>
<!-- _diagram_info -->
<g id="node1" class="node"><title>_diagram_info</title>
<text text-anchor="start" x="8" y="-279.6" font-family="Times,serif" font-size="13.00">Models diagram</text>
<text text-anchor="start" x="8" y="-265.6" font-family="Times,serif" font-size="13.00">Date: Jun 30 2014 &#45; 13:33</text>
<text text-anchor="start" x="8" y="-251.6" font-family="Times,serif" font-size="13.00">Migration version: 20140625081947</text>
<text text-anchor="start" x="8" y="-237.6" font-family="Times,serif" font-size="13.00">Generated by RailRoady 1.1.1</text>
<text text-anchor="start" x="8" y="-223.6" font-family="Times,serif" font-size="13.00">http://railroady.prestonlee.com</text>
</g>
<!-- RubyGem -->
<g id="node2" class="node"><title>RubyGem</title>
<ellipse fill="none" stroke="black" cx="238" cy="-162" rx="47.169" ry="18"/>
<text text-anchor="middle" x="238" y="-158.3" font-family="Times,serif" font-size="14.00">RubyGem</text>
</g>
<!-- FedoraRpm -->
<g id="node3" class="node"><title>FedoraRpm</title>
<ellipse fill="none" stroke="black" cx="387" cy="-90" rx="52.4675" ry="18"/>
<text text-anchor="middle" x="387" y="-86.3" font-family="Times,serif" font-size="14.00">FedoraRpm</text>
</g>
<!-- RubyGem&#45;&gt;FedoraRpm -->
<g id="edge1" class="edge"><title>RubyGem&#45;&gt;FedoraRpm</title>
<path fill="none" stroke="#e0e94b" d="M274.027,-144.075C297.056,-133.255 326.846,-119.26 350.053,-108.358"/>
<ellipse fill="none" stroke="#e0e94b" cx="270.349" cy="-145.802" rx="4.00002" ry="4.00002"/>
<ellipse fill="#e0e94b" stroke="#e0e94b" cx="353.719" cy="-106.635" rx="4.00002" ry="4.00002"/>
</g>
<!-- Dependency -->
<g id="node4" class="node"><title>Dependency</title>
<ellipse fill="none" stroke="black" cx="186" cy="-18" rx="54.3924" ry="18"/>
<text text-anchor="middle" x="186" y="-14.3" font-family="Times,serif" font-size="14.00">Dependency</text>
</g>
<!-- RubyGem&#45;&gt;Dependency -->
<g id="edge2" class="edge"><title>RubyGem&#45;&gt;Dependency</title>
<path fill="none" stroke="#d5e3a9" d="M241.33,-135.441C242.67,-117.096 242.296,-92.1584 234,-72 229.396,-60.8125 221.341,-50.4621 213.13,-41.9328"/>
<ellipse fill="none" stroke="#d5e3a9" cx="240.925" cy="-139.883" rx="4" ry="4"/>
<polygon fill="#d5e3a9" stroke="#d5e3a9" points="213.113,-41.9161 209.1,-31.7107 209.535,-38.4235 205.957,-34.9309 205.957,-34.9309 205.957,-34.9309 209.535,-38.4235 202.814,-38.151 213.113,-41.9161 213.113,-41.9161"/>
</g>
<!-- GemVersion -->
<g id="node5" class="node"><title>GemVersion</title>
<ellipse fill="none" stroke="black" cx="170" cy="-90" rx="55.3436" ry="18"/>
<text text-anchor="middle" x="170" y="-86.3" font-family="Times,serif" font-size="14.00">GemVersion</text>
</g>
<!-- RubyGem&#45;&gt;GemVersion -->
<g id="edge3" class="edge"><title>RubyGem&#45;&gt;GemVersion</title>
<path fill="none" stroke="#a83009" d="M216.647,-139.019C209.254,-131.408 200.931,-122.841 193.384,-115.071"/>
<ellipse fill="none" stroke="#a83009" cx="219.441" cy="-141.896" rx="4.00002" ry="4.00002"/>
<polygon fill="#a83009" stroke="#a83009" points="193.126,-114.806 189.386,-104.498 189.642,-111.22 186.158,-107.633 186.158,-107.633 186.158,-107.633 189.642,-111.22 182.93,-110.769 193.126,-114.806 193.126,-114.806"/>
</g>
<!-- FedoraRpm&#45;&gt;Dependency -->
<g id="edge8" class="edge"><title>FedoraRpm&#45;&gt;Dependency</title>
<path fill="none" stroke="#15f94d" d="M343.567,-73.8741C310.557,-62.3781 265.261,-46.6034 231.704,-34.917"/>
<ellipse fill="none" stroke="#15f94d" cx="347.75" cy="-75.331" rx="4.00001" ry="4.00001"/>
<polygon fill="#15f94d" stroke="#15f94d" points="231.577,-34.8727 223.613,-27.3341 226.855,-33.2282 222.133,-31.5837 222.133,-31.5837 222.133,-31.5837 226.855,-33.2282 220.653,-35.8334 231.577,-34.8727 231.577,-34.8727"/>
</g>
<!-- RpmVersion -->
<g id="node6" class="node"><title>RpmVersion</title>
<ellipse fill="none" stroke="black" cx="314" cy="-18" rx="55.3436" ry="18"/>
<text text-anchor="middle" x="314" y="-14.3" font-family="Times,serif" font-size="14.00">RpmVersion</text>
</g>
<!-- FedoraRpm&#45;&gt;RpmVersion -->
<g id="edge5" class="edge"><title>FedoraRpm&#45;&gt;RpmVersion</title>
<path fill="none" stroke="#8f0298" d="M364.031,-66.9752C355.867,-59.1465 346.651,-50.3088 338.373,-42.3714"/>
<ellipse fill="none" stroke="#8f0298" cx="367.182" cy="-69.9962" rx="4.00002" ry="4.00002"/>
<polygon fill="#8f0298" stroke="#8f0298" points="338.31,-42.311 334.207,-32.1418 334.701,-38.8504 331.092,-35.3898 331.092,-35.3898 331.092,-35.3898 334.701,-38.8504 327.978,-38.6378 338.31,-42.311 338.31,-42.311"/>
</g>
<!-- Bug -->
<g id="node7" class="node"><title>Bug</title>
<ellipse fill="none" stroke="black" cx="415" cy="-18" rx="27" ry="18"/>
<text text-anchor="middle" x="415" y="-14.3" font-family="Times,serif" font-size="14.00">Bug</text>
</g>
<!-- FedoraRpm&#45;&gt;Bug -->
<g id="edge6" class="edge"><title>FedoraRpm&#45;&gt;Bug</title>
<path fill="none" stroke="#f708c8" d="M396.828,-64.4306C399.314,-58.214 401.994,-51.5142 404.512,-45.2195"/>
<ellipse fill="none" stroke="#f708c8" cx="395.264" cy="-68.341" rx="4.00001" ry="4.00001"/>
<polygon fill="#f708c8" stroke="#f708c8" points="404.57,-45.0738 412.463,-37.4603 406.427,-40.4314 408.284,-35.789 408.284,-35.789 408.284,-35.789 406.427,-40.4314 404.106,-34.1177 404.57,-45.0738 404.57,-45.0738"/>
</g>
<!-- KojiBuild -->
<g id="node8" class="node"><title>KojiBuild</title>
<ellipse fill="none" stroke="black" cx="506" cy="-18" rx="46.2191" ry="18"/>
<text text-anchor="middle" x="506" y="-14.3" font-family="Times,serif" font-size="14.00">KojiBuild</text>
</g>
<!-- FedoraRpm&#45;&gt;KojiBuild -->
<g id="edge7" class="edge"><title>FedoraRpm&#45;&gt;KojiBuild</title>
<path fill="none" stroke="#b70b76" d="M419.225,-70.0438C435.805,-60.2909 455.991,-48.417 472.72,-38.5764"/>
<ellipse fill="none" stroke="#b70b76" cx="415.685" cy="-72.1267" rx="4.00002" ry="4.00002"/>
<polygon fill="#b70b76" stroke="#b70b76" points="472.994,-38.4153 483.895,-37.2237 477.304,-35.8802 481.613,-33.345 481.613,-33.345 481.613,-33.345 477.304,-35.8802 479.332,-29.4663 472.994,-38.4153 472.994,-38.4153"/>
</g>
<!-- ActiveRecord::Base -->
<g id="node9" class="node"><title>ActiveRecord::Base</title>
<ellipse fill="none" stroke="black" cx="313" cy="-255" rx="81.3646" ry="18"/>
<text text-anchor="middle" x="313" y="-251.3" font-family="Times,serif" font-size="14.00">ActiveRecord::Base</text>
</g>
<!-- ActiveRecord::Base&#45;&gt;RubyGem -->
<g id="edge4" class="edge"><title>ActiveRecord::Base&#45;&gt;RubyGem</title>
<path fill="none" stroke="black" d="M298.893,-236.884C285.315,-220.408 264.923,-195.666 251.539,-179.427"/>
</g>
<!-- ActiveRecord::Base&#45;&gt;FedoraRpm -->
<g id="edge9" class="edge"><title>ActiveRecord::Base&#45;&gt;FedoraRpm</title>
<path fill="none" stroke="black" d="M320.779,-236.864C335.029,-205.477 365.153,-139.122 379.325,-107.906"/>
</g>
<!-- ActiveRecord::Base&#45;&gt;Dependency -->
<g id="edge10" class="edge"><title>ActiveRecord::Base&#45;&gt;Dependency</title>
<path fill="none" stroke="black" d="M273.372,-239.181C242.272,-226.39 198.883,-205.899 166,-180 133.052,-154.05 119.438,-147.377 105,-108 99.492,-92.978 97.3897,-86.0742 105,-72 114.912,-53.6695 134.226,-40.6619 151.508,-32.1213"/>
</g>
<!-- ActiveRecord::Base&#45;&gt;GemVersion -->
<g id="edge11" class="edge"><title>ActiveRecord::Base&#45;&gt;GemVersion</title>
<path fill="none" stroke="black" d="M278.103,-238.629C243.477,-222.653 193.901,-197.572 182,-180 167.487,-158.571 166.75,-127.511 168.025,-108.32"/>
</g>
<!-- ActiveRecord::Base&#45;&gt;RpmVersion -->
<g id="edge12" class="edge"><title>ActiveRecord::Base&#45;&gt;RpmVersion</title>
<path fill="none" stroke="black" d="M313.074,-236.72C313.258,-193.261 313.741,-79.7913 313.926,-36.3054"/>
</g>
<!-- ActiveRecord::Base&#45;&gt;Bug -->
<g id="edge13" class="edge"><title>ActiveRecord::Base&#45;&gt;Bug</title>
<path fill="none" stroke="black" d="M336.45,-237.737C368.765,-213.725 425.536,-165.382 448,-108 453.833,-93.101 452.398,-87.3837 448,-72 444.008,-58.0349 435.153,-44.1682 427.621,-34.1232"/>
</g>
<!-- ActiveRecord::Base&#45;&gt;KojiBuild -->
<g id="edge14" class="edge"><title>ActiveRecord::Base&#45;&gt;KojiBuild</title>
<path fill="none" stroke="black" d="M347.354,-238.559C372.583,-225.812 406.28,-205.668 429,-180 468.223,-135.686 491.78,-67.8753 501.214,-36.2969"/>
</g>
</g>
</svg>
