<?xml version="1.0" encoding="UTF-8" standalone="no"?>
<!DOCTYPE svg PUBLIC "-//W3C//DTD SVG 1.1//EN"
 "http://www.w3.org/Graphics/SVG/1.1/DTD/svg11.dtd">
<!-- Generated by graphviz version 2.36.0 (20140111.2315)
 -->
<!-- Title: models_diagram Pages: 1 -->
<svg width="575pt" height="302pt"
 viewBox="0.00 0.00 575.00 302.00" xmlns="http://www.w3.org/2000/svg" xmlns:xlink="http://www.w3.org/1999/xlink">
<g id="graph0" class="graph" transform="scale(1 1) rotate(0) translate(4 298)">
<title>models_diagram</title>
<polygon fill="white" stroke="none" points="-4,4 -4,-298 571,-298 571,4 -4,4"/>
<!-- _diagram_info -->
<g id="node1" class="node"><title>_diagram_info</title>
<text text-anchor="start" x="15" y="-279.6" font-family="Times,serif" font-size="13.00">Models diagram</text>
<text text-anchor="start" x="15" y="-265.6" font-family="Times,serif" font-size="13.00">Date: Jun 26 2014 &#45; 10:51</text>
<text text-anchor="start" x="15" y="-251.6" font-family="Times,serif" font-size="13.00">Migration version: 20140625081947</text>
<text text-anchor="start" x="15" y="-237.6" font-family="Times,serif" font-size="13.00">Generated by RailRoady 1.1.1</text>
<text text-anchor="start" x="15" y="-223.6" font-family="Times,serif" font-size="13.00">http://railroady.prestonlee.com</text>
</g>
<!-- RubyGem -->
<g id="node2" class="node"><title>RubyGem</title>
<ellipse fill="none" stroke="black" cx="245" cy="-162" rx="47.169" ry="18"/>
<text text-anchor="middle" x="245" y="-158.3" font-family="Times,serif" font-size="14.00">RubyGem</text>
</g>
<!-- FedoraRpm -->
<g id="node3" class="node"><title>FedoraRpm</title>
<ellipse fill="none" stroke="black" cx="409" cy="-90" rx="52.4675" ry="18"/>
<text text-anchor="middle" x="409" y="-86.3" font-family="Times,serif" font-size="14.00">FedoraRpm</text>
</g>
<!-- RubyGem&#45;&gt;FedoraRpm -->
<g id="edge1" class="edge"><title>RubyGem&#45;&gt;FedoraRpm</title>
<path fill="none" stroke="#d33d51" d="M282.899,-144.824C309.033,-133.669 343.674,-118.883 370.035,-107.631"/>
<ellipse fill="none" stroke="#d33d51" cx="279.142" cy="-146.427" rx="4.00002" ry="4.00002"/>
<ellipse fill="#d33d51" stroke="#d33d51" cx="373.905" cy="-105.98" rx="4.00002" ry="4.00002"/>
</g>
<!-- Dependency -->
<g id="node4" class="node"><title>Dependency</title>
<ellipse fill="none" stroke="black" cx="54" cy="-18" rx="54.3924" ry="18"/>
<text text-anchor="middle" x="54" y="-14.3" font-family="Times,serif" font-size="14.00">Dependency</text>
</g>
<!-- RubyGem&#45;&gt;Dependency -->
<g id="edge2" class="edge"><title>RubyGem&#45;&gt;Dependency</title>
<path fill="none" stroke="#c58b28" d="M190.041,-158.197C151.882,-153.274 102.738,-140.496 73,-108 57.7904,-91.3797 53.6296,-65.6618 52.928,-46.1377"/>
<ellipse fill="none" stroke="#c58b28" cx="194.033" cy="-158.666" rx="4.00001" ry="4.00001"/>
<polygon fill="#c58b28" stroke="#c58b28" points="52.9272,-46.025 57.3458,-35.9888 52.8866,-41.0252 52.8459,-36.0253 52.8459,-36.0253 52.8459,-36.0253 52.8866,-41.0252 48.3461,-36.0619 52.9272,-46.025 52.9272,-46.025"/>
</g>
<!-- GemVersion -->
<g id="node5" class="node"><title>GemVersion</title>
<ellipse fill="none" stroke="black" cx="282" cy="-90" rx="55.3436" ry="18"/>
<text text-anchor="middle" x="282" y="-86.3" font-family="Times,serif" font-size="14.00">GemVersion</text>
</g>
<!-- RubyGem&#45;&gt;GemVersion -->
<g id="edge4" class="edge"><title>RubyGem&#45;&gt;GemVersion</title>
<path fill="none" stroke="#a62597" d="M257.837,-136.714C261.226,-130.302 264.897,-123.358 268.329,-116.865"/>
<ellipse fill="none" stroke="#a62597" cx="255.826" cy="-140.519" rx="4.00002" ry="4.00002"/>
<polygon fill="#a62597" stroke="#a62597" points="268.453,-116.63 277.104,-109.892 270.789,-112.209 273.126,-107.789 273.126,-107.789 273.126,-107.789 270.789,-112.209 269.147,-105.686 268.453,-116.63 268.453,-116.63"/>
</g>
<!-- HistoricalGem -->
<g id="node9" class="node"><title>HistoricalGem</title>
<ellipse fill="none" stroke="black" cx="145" cy="-90" rx="63.0666" ry="18"/>
<text text-anchor="middle" x="145" y="-86.3" font-family="Times,serif" font-size="14.00">HistoricalGem</text>
</g>
<!-- RubyGem&#45;&gt;HistoricalGem -->
<g id="edge3" class="edge"><title>RubyGem&#45;&gt;HistoricalGem</title>
<path fill="none" stroke="#a66cc5" d="M216.462,-141.023C203.897,-132.228 189.1,-121.87 176.24,-112.868"/>
<ellipse fill="none" stroke="#a66cc5" cx="220.025" cy="-143.517" rx="4.00002" ry="4.00002"/>
<polygon fill="#a66cc5" stroke="#a66cc5" points="175.89,-112.623 170.278,-103.202 171.794,-109.756 167.697,-106.888 167.697,-106.888 167.697,-106.888 171.794,-109.756 165.117,-110.575 175.89,-112.623 175.89,-112.623"/>
</g>
<!-- FedoraRpm&#45;&gt;Dependency -->
<g id="edge9" class="edge"><title>FedoraRpm&#45;&gt;Dependency</title>
<path fill="none" stroke="#7ddc9c" d="M361.988,-75.851C356.612,-74.4852 351.198,-73.1708 346,-72 265.344,-53.8318 171.073,-37.616 111.946,-28.0434"/>
<ellipse fill="none" stroke="#7ddc9c" cx="365.935" cy="-76.8741" rx="4.00001" ry="4.00001"/>
<polygon fill="#7ddc9c" stroke="#7ddc9c" points="111.919,-28.0392 102.762,-22.0069 106.983,-27.2444 102.047,-26.4496 102.047,-26.4496 102.047,-26.4496 106.983,-27.2444 101.331,-30.8924 111.919,-28.0392 111.919,-28.0392"/>
</g>
<!-- RpmVersion -->
<g id="node6" class="node"><title>RpmVersion</title>
<ellipse fill="none" stroke="black" cx="245" cy="-18" rx="55.3436" ry="18"/>
<text text-anchor="middle" x="245" y="-14.3" font-family="Times,serif" font-size="14.00">RpmVersion</text>
</g>
<!-- FedoraRpm&#45;&gt;RpmVersion -->
<g id="edge6" class="edge"><title>FedoraRpm&#45;&gt;RpmVersion</title>
<path fill="none" stroke="#1bf328" d="M370.019,-72.3617C344.865,-61.6254 312.178,-47.6735 286.536,-36.7286"/>
<ellipse fill="none" stroke="#1bf328" cx="373.7" cy="-73.933" rx="4.00002" ry="4.00002"/>
<polygon fill="#1bf328" stroke="#1bf328" points="286.281,-36.6198 278.85,-28.5554 281.682,-34.657 277.083,-32.6941 277.083,-32.6941 277.083,-32.6941 281.682,-34.657 275.317,-36.8329 286.281,-36.6198 286.281,-36.6198"/>
</g>
<!-- Bug -->
<g id="node7" class="node"><title>Bug</title>
<ellipse fill="none" stroke="black" cx="416" cy="-18" rx="27" ry="18"/>
<text text-anchor="middle" x="416" y="-14.3" font-family="Times,serif" font-size="14.00">Bug</text>
</g>
<!-- FedoraRpm&#45;&gt;Bug -->
<g id="edge7" class="edge"><title>FedoraRpm&#45;&gt;Bug</title>
<path fill="none" stroke="#96e1b4" d="M411.536,-63.6398C412.094,-58.0629 412.687,-52.1319 413.252,-46.4761"/>
<ellipse fill="none" stroke="#96e1b4" cx="411.128" cy="-67.7165" rx="4" ry="4"/>
<polygon fill="#96e1b4" stroke="#96e1b4" points="413.294,-46.0547 418.767,-36.5521 413.792,-41.0795 414.29,-36.1043 414.29,-36.1043 414.29,-36.1043 413.792,-41.0795 409.812,-35.6565 413.294,-46.0547 413.294,-46.0547"/>
</g>
<!-- KojiBuild -->
<g id="node8" class="node"><title>KojiBuild</title>
<ellipse fill="none" stroke="black" cx="521" cy="-18" rx="46.2191" ry="18"/>
<text text-anchor="middle" x="521" y="-14.3" font-family="Times,serif" font-size="14.00">KojiBuild</text>
</g>
<!-- FedoraRpm&#45;&gt;KojiBuild -->
<g id="edge8" class="edge"><title>FedoraRpm&#45;&gt;KojiBuild</title>
<path fill="none" stroke="#1cfa85" d="M439.997,-69.6271C455.167,-60.1459 473.417,-48.7393 488.751,-39.1555"/>
<ellipse fill="none" stroke="#1cfa85" cx="436.419" cy="-71.8632" rx="4.00002" ry="4.00002"/>
<polygon fill="#1cfa85" stroke="#1cfa85" points="488.917,-39.0517 499.782,-37.5677 493.157,-36.4017 497.397,-33.7517 497.397,-33.7517 497.397,-33.7517 493.157,-36.4017 495.012,-29.9357 488.917,-39.0517 488.917,-39.0517"/>
</g>
<!-- ActiveRecord::Base -->
<g id="node10" class="node"><title>ActiveRecord::Base</title>
<ellipse fill="none" stroke="black" cx="320" cy="-255" rx="81.3646" ry="18"/>
<text text-anchor="middle" x="320" y="-251.3" font-family="Times,serif" font-size="14.00">ActiveRecord::Base</text>
</g>
<!-- ActiveRecord::Base&#45;&gt;RubyGem -->
<g id="edge5" class="edge"><title>ActiveRecord::Base&#45;&gt;RubyGem</title>
<path fill="none" stroke="black" d="M305.893,-236.884C292.315,-220.408 271.923,-195.666 258.539,-179.427"/>
</g>
<!-- ActiveRecord::Base&#45;&gt;FedoraRpm -->
<g id="edge10" class="edge"><title>ActiveRecord::Base&#45;&gt;FedoraRpm</title>
<path fill="none" stroke="black" d="M329.356,-236.864C346.494,-205.477 382.725,-139.122 399.769,-107.906"/>
</g>
<!-- ActiveRecord::Base&#45;&gt;Dependency -->
<g id="edge11" class="edge"><title>ActiveRecord::Base&#45;&gt;Dependency</title>
<path fill="none" stroke="black" d="M285.775,-238.672C268.859,-231.363 248.037,-222.761 229,-216 175.726,-197.08 151.848,-214.42 107,-180 77.2496,-157.167 74.9629,-143.543 63,-108 54.925,-84.0083 53.4843,-54.4869 53.5032,-36.2041"/>
</g>
<!-- ActiveRecord::Base&#45;&gt;GemVersion -->
<g id="edge12" class="edge"><title>ActiveRecord::Base&#45;&gt;GemVersion</title>
<path fill="none" stroke="black" d="M317.949,-236.654C315.15,-214.809 309.493,-176.233 301,-144 297.762,-131.712 292.913,-118.237 288.924,-107.949"/>
</g>
<!-- ActiveRecord::Base&#45;&gt;RpmVersion -->
<g id="edge13" class="edge"><title>ActiveRecord::Base&#45;&gt;RpmVersion</title>
<path fill="none" stroke="black" d="M284.788,-238.583C222.238,-210.383 96.1257,-149.572 73,-108 65.222,-94.0178 63.497,-84.8722 73,-72 99.5387,-36.0523 150.097,-23.7275 189.56,-19.851"/>
</g>
<!-- ActiveRecord::Base&#45;&gt;Bug -->
<g id="edge14" class="edge"><title>ActiveRecord::Base&#45;&gt;Bug</title>
<path fill="none" stroke="black" d="M346.89,-237.8C382.854,-214.368 444.984,-167.259 470,-108 476.223,-93.2596 476.192,-86.7533 470,-72 462.832,-54.9213 447.179,-40.5778 434.561,-31.1375"/>
</g>
<!-- ActiveRecord::Base&#45;&gt;KojiBuild -->
<g id="edge15" class="edge"><title>ActiveRecord::Base&#45;&gt;KojiBuild</title>
<path fill="none" stroke="black" d="M357.926,-238.935C385.593,-226.441 422.55,-206.451 448,-180 488.856,-137.538 509.49,-68.2064 517.254,-36.1946"/>
</g>
</g>
</svg>
