<?xml version="1.0" encoding="UTF-8" standalone="no"?>
<!DOCTYPE svg PUBLIC "-//W3C//DTD SVG 1.1//EN"
 "http://www.w3.org/Graphics/SVG/1.1/DTD/svg11.dtd">
<!-- Generated by graphviz version 2.36.0 (20140111.2315)
 -->
<!-- Title: models_diagram Pages: 1 -->
<svg width="728pt" height="816pt"
 viewBox="0.00 0.00 728.00 816.00" xmlns="http://www.w3.org/2000/svg" xmlns:xlink="http://www.w3.org/1999/xlink">
<g id="graph0" class="graph" transform="scale(1 1) rotate(0) translate(4 812)">
<title>models_diagram</title>
<polygon fill="white" stroke="none" points="-4,4 -4,-812 724,-812 724,4 -4,4"/>
<!-- _diagram_info -->
<g id="node1" class="node"><title>_diagram_info</title>
<text text-anchor="start" x="59" y="-793.6" font-family="Times,serif" font-size="13.00">Models diagram</text>
<text text-anchor="start" x="59" y="-779.6" font-family="Times,serif" font-size="13.00">Date: Jun 26 2014 &#45; 10:51</text>
<text text-anchor="start" x="59" y="-765.6" font-family="Times,serif" font-size="13.00">Migration version: 20140625081947</text>
<text text-anchor="start" x="59" y="-751.6" font-family="Times,serif" font-size="13.00">Generated by RailRoady 1.1.1</text>
<text text-anchor="start" x="59" y="-737.6" font-family="Times,serif" font-size="13.00">http://railroady.prestonlee.com</text>
</g>
<!-- RubyGem -->
<g id="node2" class="node"><title>RubyGem</title>
<path fill="none" stroke="black" d="M216.5,-512.5C216.5,-512.5 323.5,-512.5 323.5,-512.5 329.5,-512.5 335.5,-518.5 335.5,-524.5 335.5,-524.5 335.5,-681.5 335.5,-681.5 335.5,-687.5 329.5,-693.5 323.5,-693.5 323.5,-693.5 216.5,-693.5 216.5,-693.5 210.5,-693.5 204.5,-687.5 204.5,-681.5 204.5,-681.5 204.5,-524.5 204.5,-524.5 204.5,-518.5 210.5,-512.5 216.5,-512.5"/>
<text text-anchor="middle" x="270" y="-678.3" font-family="Times,serif" font-size="14.00">RubyGem</text>
<polyline fill="none" stroke="black" points="204.5,-670.5 335.5,-670.5 "/>
<text text-anchor="start" x="212.5" y="-655.3" font-family="Times,serif" font-size="14.00">id :integer</text>
<text text-anchor="start" x="212.5" y="-640.3" font-family="Times,serif" font-size="14.00">name :string</text>
<text text-anchor="start" x="212.5" y="-625.3" font-family="Times,serif" font-size="14.00">description :text</text>
<text text-anchor="start" x="212.5" y="-610.3" font-family="Times,serif" font-size="14.00">homepage :string</text>
<text text-anchor="start" x="212.5" y="-595.3" font-family="Times,serif" font-size="14.00">version :string</text>
<text text-anchor="start" x="212.5" y="-580.3" font-family="Times,serif" font-size="14.00">has_rpm :boolean</text>
<text text-anchor="start" x="212.5" y="-565.3" font-family="Times,serif" font-size="14.00">created_at :datetime</text>
<text text-anchor="start" x="212.5" y="-550.3" font-family="Times,serif" font-size="14.00">updated_at :datetime</text>
<text text-anchor="start" x="212.5" y="-535.3" font-family="Times,serif" font-size="14.00">downloads :integer</text>
<text text-anchor="start" x="212.5" y="-520.3" font-family="Times,serif" font-size="14.00">source_uri :string</text>
</g>
<!-- FedoraRpm -->
<g id="node3" class="node"><title>FedoraRpm</title>
<path fill="none" stroke="black" d="M414,-204.5C414,-204.5 566,-204.5 566,-204.5 572,-204.5 578,-210.5 578,-216.5 578,-216.5 578,-463.5 578,-463.5 578,-469.5 572,-475.5 566,-475.5 566,-475.5 414,-475.5 414,-475.5 408,-475.5 402,-469.5 402,-463.5 402,-463.5 402,-216.5 402,-216.5 402,-210.5 408,-204.5 414,-204.5"/>
<text text-anchor="middle" x="490" y="-460.3" font-family="Times,serif" font-size="14.00">FedoraRpm</text>
<polyline fill="none" stroke="black" points="402,-452.5 578,-452.5 "/>
<text text-anchor="start" x="410" y="-437.3" font-family="Times,serif" font-size="14.00">id :integer</text>
<text text-anchor="start" x="410" y="-422.3" font-family="Times,serif" font-size="14.00">name :string</text>
<text text-anchor="start" x="410" y="-407.3" font-family="Times,serif" font-size="14.00">source_uri :string</text>
<text text-anchor="start" x="410" y="-392.3" font-family="Times,serif" font-size="14.00">last_commit_message :string</text>
<text text-anchor="start" x="410" y="-377.3" font-family="Times,serif" font-size="14.00">created_at :datetime</text>
<text text-anchor="start" x="410" y="-362.3" font-family="Times,serif" font-size="14.00">updated_at :datetime</text>
<text text-anchor="start" x="410" y="-347.3" font-family="Times,serif" font-size="14.00">author :string</text>
<text text-anchor="start" x="410" y="-332.3" font-family="Times,serif" font-size="14.00">last_committer :string</text>
<text text-anchor="start" x="410" y="-317.3" font-family="Times,serif" font-size="14.00">last_commit_date :datetime</text>
<text text-anchor="start" x="410" y="-302.3" font-family="Times,serif" font-size="14.00">last_commit_sha :string</text>
<text text-anchor="start" x="410" y="-287.3" font-family="Times,serif" font-size="14.00">homepage :string</text>
<text text-anchor="start" x="410" y="-272.3" font-family="Times,serif" font-size="14.00">ruby_gem_id :integer</text>
<text text-anchor="start" x="410" y="-257.3" font-family="Times,serif" font-size="14.00">commits :integer</text>
<text text-anchor="start" x="410" y="-242.3" font-family="Times,serif" font-size="14.00">fedora_user :string</text>
<text text-anchor="start" x="410" y="-227.3" font-family="Times,serif" font-size="14.00">summary :text</text>
<text text-anchor="start" x="410" y="-212.3" font-family="Times,serif" font-size="14.00">description :text</text>
</g>
<!-- RubyGem&#45;&gt;FedoraRpm -->
<g id="edge1" class="edge"><title>RubyGem&#45;&gt;FedoraRpm</title>
<path fill="none" stroke="#9f4e54" d="M341.626,-532.357C358.987,-514.478 377.11,-494.934 393,-476 394.206,-474.563 395.413,-473.112 396.621,-471.649"/>
<ellipse fill="none" stroke="#9f4e54" cx="338.567" cy="-535.491" rx="4.00002" ry="4.00002"/>
<ellipse fill="#9f4e54" stroke="#9f4e54" cx="399.388" cy="-468.257" rx="4.00002" ry="4.00002"/>
</g>
<!-- Dependency -->
<g id="node4" class="node"><title>Dependency</title>
<path fill="none" stroke="black" d="M11.5,-8.5C11.5,-8.5 144.5,-8.5 144.5,-8.5 150.5,-8.5 156.5,-14.5 156.5,-20.5 156.5,-20.5 156.5,-147.5 156.5,-147.5 156.5,-153.5 150.5,-159.5 144.5,-159.5 144.5,-159.5 11.5,-159.5 11.5,-159.5 5.5,-159.5 -0.5,-153.5 -0.5,-147.5 -0.5,-147.5 -0.5,-20.5 -0.5,-20.5 -0.5,-14.5 5.5,-8.5 11.5,-8.5"/>
<text text-anchor="middle" x="78" y="-144.3" font-family="Times,serif" font-size="14.00">Dependency</text>
<polyline fill="none" stroke="black" points="-0.5,-136.5 156.5,-136.5 "/>
<text text-anchor="start" x="7.5" y="-121.3" font-family="Times,serif" font-size="14.00">id :integer</text>
<text text-anchor="start" x="7.5" y="-106.3" font-family="Times,serif" font-size="14.00">environment :string</text>
<text text-anchor="start" x="7.5" y="-91.3" font-family="Times,serif" font-size="14.00">dependent :string</text>
<text text-anchor="start" x="7.5" y="-76.3" font-family="Times,serif" font-size="14.00">dependent_version :string</text>
<text text-anchor="start" x="7.5" y="-61.3" font-family="Times,serif" font-size="14.00">created_at :datetime</text>
<text text-anchor="start" x="7.5" y="-46.3" font-family="Times,serif" font-size="14.00">updated_at :datetime</text>
<text text-anchor="start" x="7.5" y="-31.3" font-family="Times,serif" font-size="14.00">package_id :integer</text>
<text text-anchor="start" x="7.5" y="-16.3" font-family="Times,serif" font-size="14.00">package_type :string</text>
</g>
<!-- RubyGem&#45;&gt;Dependency -->
<g id="edge2" class="edge"><title>RubyGem&#45;&gt;Dependency</title>
<path fill="none" stroke="#97d56b" d="M197.096,-568.498C160.303,-547.483 118.923,-516.617 97,-476 45.5856,-380.743 50.7934,-252.664 62.0683,-169.478"/>
<ellipse fill="none" stroke="#97d56b" cx="200.894" cy="-570.619" rx="4.00002" ry="4.00002"/>
<polygon fill="#97d56b" stroke="#97d56b" points="62.0704,-169.463 67.9257,-160.191 62.7702,-164.512 63.47,-159.561 63.47,-159.561 63.47,-159.561 62.7702,-164.512 59.0143,-158.931 62.0704,-169.463 62.0704,-169.463"/>
</g>
<!-- GemVersion -->
<g id="node5" class="node"><title>GemVersion</title>
<path fill="none" stroke="black" d="M262,-287C262,-287 372,-287 372,-287 378,-287 384,-293 384,-299 384,-299 384,-381 384,-381 384,-387 378,-393 372,-393 372,-393 262,-393 262,-393 256,-393 250,-387 250,-381 250,-381 250,-299 250,-299 250,-293 256,-287 262,-287"/>
<text text-anchor="middle" x="317" y="-377.8" font-family="Times,serif" font-size="14.00">GemVersion</text>
<polyline fill="none" stroke="black" points="250,-370 384,-370 "/>
<text text-anchor="start" x="258" y="-354.8" font-family="Times,serif" font-size="14.00">id :integer</text>
<text text-anchor="start" x="258" y="-339.8" font-family="Times,serif" font-size="14.00">gem_version :string</text>
<text text-anchor="start" x="258" y="-324.8" font-family="Times,serif" font-size="14.00">ruby_gem_id :integer</text>
<text text-anchor="start" x="258" y="-309.8" font-family="Times,serif" font-size="14.00">created_at :datetime</text>
<text text-anchor="start" x="258" y="-294.8" font-family="Times,serif" font-size="14.00">updated_at :datetime</text>
</g>
<!-- RubyGem&#45;&gt;GemVersion -->
<g id="edge4" class="edge"><title>RubyGem&#45;&gt;GemVersion</title>
<path fill="none" stroke="#a8a00c" d="M287.61,-504.208C293.702,-470.378 300.358,-433.415 305.793,-403.232"/>
<ellipse fill="none" stroke="#a8a00c" cx="286.884" cy="-508.242" rx="4.00001" ry="4.00001"/>
<polygon fill="#a8a00c" stroke="#a8a00c" points="305.815,-403.112 312.016,-394.068 306.701,-398.192 307.587,-393.271 307.587,-393.271 307.587,-393.271 306.701,-398.192 303.159,-392.473 305.815,-403.112 305.815,-403.112"/>
</g>
<!-- HistoricalGem -->
<g id="node9" class="node"><title>HistoricalGem</title>
<ellipse fill="none" stroke="black" cx="169" cy="-340" rx="63.0666" ry="18"/>
<text text-anchor="middle" x="169" y="-336.3" font-family="Times,serif" font-size="14.00">HistoricalGem</text>
</g>
<!-- RubyGem&#45;&gt;HistoricalGem -->
<g id="edge3" class="edge"><title>RubyGem&#45;&gt;HistoricalGem</title>
<path fill="none" stroke="#4b3492" d="M232.295,-504.564C213.307,-455.495 191.735,-399.75 179.312,-367.647"/>
<ellipse fill="none" stroke="#4b3492" cx="233.798" cy="-508.448" rx="4.00001" ry="4.00001"/>
<polygon fill="#4b3492" stroke="#4b3492" points="179.224,-367.42 179.811,-356.469 177.419,-362.756 175.615,-358.093 175.615,-358.093 175.615,-358.093 177.419,-362.756 171.418,-359.717 179.224,-367.42 179.224,-367.42"/>
</g>
<!-- FedoraRpm&#45;&gt;Dependency -->
<g id="edge9" class="edge"><title>FedoraRpm&#45;&gt;Dependency</title>
<path fill="none" stroke="#109595" d="M395.268,-205.48C394.516,-204.979 393.76,-204.485 393,-204 320.916,-158.001 283.239,-200.142 204,-168 190.983,-162.72 177.891,-156.01 165.326,-148.701"/>
<ellipse fill="none" stroke="#109595" cx="398.663" cy="-207.887" rx="4.00002" ry="4.00002"/>
<polygon fill="#109595" stroke="#109595" points="165.302,-148.687 159.028,-139.693 161.011,-146.121 156.719,-143.555 156.719,-143.555 156.719,-143.555 161.011,-146.121 154.41,-147.418 165.302,-148.687 165.302,-148.687"/>
</g>
<!-- RpmVersion -->
<g id="node6" class="node"><title>RpmVersion</title>
<path fill="none" stroke="black" d="M225.5,-16C225.5,-16 344.5,-16 344.5,-16 350.5,-16 356.5,-22 356.5,-28 356.5,-28 356.5,-140 356.5,-140 356.5,-146 350.5,-152 344.5,-152 344.5,-152 225.5,-152 225.5,-152 219.5,-152 213.5,-146 213.5,-140 213.5,-140 213.5,-28 213.5,-28 213.5,-22 219.5,-16 225.5,-16"/>
<text text-anchor="middle" x="285" y="-136.8" font-family="Times,serif" font-size="14.00">RpmVersion</text>
<polyline fill="none" stroke="black" points="213.5,-129 356.5,-129 "/>
<text text-anchor="start" x="221.5" y="-113.8" font-family="Times,serif" font-size="14.00">id :integer</text>
<text text-anchor="start" x="221.5" y="-98.8" font-family="Times,serif" font-size="14.00">fedora_rpm_id :integer</text>
<text text-anchor="start" x="221.5" y="-83.8" font-family="Times,serif" font-size="14.00">rpm_version :string</text>
<text text-anchor="start" x="221.5" y="-68.8" font-family="Times,serif" font-size="14.00">fedora_version :string</text>
<text text-anchor="start" x="221.5" y="-53.8" font-family="Times,serif" font-size="14.00">created_at :datetime</text>
<text text-anchor="start" x="221.5" y="-38.8" font-family="Times,serif" font-size="14.00">updated_at :datetime</text>
<text text-anchor="start" x="221.5" y="-23.8" font-family="Times,serif" font-size="14.00">is_patched :boolean</text>
</g>
<!-- FedoraRpm&#45;&gt;RpmVersion -->
<g id="edge6" class="edge"><title>FedoraRpm&#45;&gt;RpmVersion</title>
<path fill="none" stroke="#6224ac" d="M396.546,-208.413C395.362,-206.93 394.18,-205.459 393,-204 381.123,-189.314 367.975,-174.073 355.059,-159.598"/>
<ellipse fill="none" stroke="#6224ac" cx="399.263" cy="-211.847" rx="4.00002" ry="4.00002"/>
<polygon fill="#6224ac" stroke="#6224ac" points="355.013,-159.547 351.683,-149.099 351.674,-155.826 348.334,-152.105 348.334,-152.105 348.334,-152.105 351.674,-155.826 344.985,-155.111 355.013,-159.547 355.013,-159.547"/>
</g>
<!-- Bug -->
<g id="node7" class="node"><title>Bug</title>
<path fill="none" stroke="black" d="M428.5,-1C428.5,-1 547.5,-1 547.5,-1 553.5,-1 559.5,-7 559.5,-13 559.5,-13 559.5,-155 559.5,-155 559.5,-161 553.5,-167 547.5,-167 547.5,-167 428.5,-167 428.5,-167 422.5,-167 416.5,-161 416.5,-155 416.5,-155 416.5,-13 416.5,-13 416.5,-7 422.5,-1 428.5,-1"/>
<text text-anchor="middle" x="488" y="-151.8" font-family="Times,serif" font-size="14.00">Bug</text>
<polyline fill="none" stroke="black" points="416.5,-144 559.5,-144 "/>
<text text-anchor="start" x="424.5" y="-128.8" font-family="Times,serif" font-size="14.00">id :integer</text>
<text text-anchor="start" x="424.5" y="-113.8" font-family="Times,serif" font-size="14.00">name :string</text>
<text text-anchor="start" x="424.5" y="-98.8" font-family="Times,serif" font-size="14.00">bz_id :string</text>
<text text-anchor="start" x="424.5" y="-83.8" font-family="Times,serif" font-size="14.00">fedora_rpm_id :integer</text>
<text text-anchor="start" x="424.5" y="-68.8" font-family="Times,serif" font-size="14.00">is_review :boolean</text>
<text text-anchor="start" x="424.5" y="-53.8" font-family="Times,serif" font-size="14.00">created_at :datetime</text>
<text text-anchor="start" x="424.5" y="-38.8" font-family="Times,serif" font-size="14.00">updated_at :datetime</text>
<text text-anchor="start" x="424.5" y="-23.8" font-family="Times,serif" font-size="14.00">last_updated :string</text>
<text text-anchor="start" x="424.5" y="-8.8" font-family="Times,serif" font-size="14.00">is_open :boolean</text>
</g>
<!-- FedoraRpm&#45;&gt;Bug -->
<g id="edge7" class="edge"><title>FedoraRpm&#45;&gt;Bug</title>
<path fill="none" stroke="#0faf6b" d="M488.874,-195.951C488.824,-189.686 488.775,-183.475 488.727,-177.378"/>
<ellipse fill="none" stroke="#0faf6b" cx="488.907" cy="-200.191" rx="4" ry="4"/>
<polygon fill="#0faf6b" stroke="#0faf6b" points="488.726,-177.237 493.147,-167.202 488.687,-172.238 488.648,-167.238 488.648,-167.238 488.648,-167.238 488.687,-172.238 484.148,-167.273 488.726,-177.237 488.726,-177.237"/>
</g>
<!-- KojiBuild -->
<g id="node8" class="node"><title>KojiBuild</title>
<path fill="none" stroke="black" d="M589.5,-23.5C589.5,-23.5 708.5,-23.5 708.5,-23.5 714.5,-23.5 720.5,-29.5 720.5,-35.5 720.5,-35.5 720.5,-132.5 720.5,-132.5 720.5,-138.5 714.5,-144.5 708.5,-144.5 708.5,-144.5 589.5,-144.5 589.5,-144.5 583.5,-144.5 577.5,-138.5 577.5,-132.5 577.5,-132.5 577.5,-35.5 577.5,-35.5 577.5,-29.5 583.5,-23.5 589.5,-23.5"/>
<text text-anchor="middle" x="649" y="-129.3" font-family="Times,serif" font-size="14.00">KojiBuild</text>
<polyline fill="none" stroke="black" points="577.5,-121.5 720.5,-121.5 "/>
<text text-anchor="start" x="585.5" y="-106.3" font-family="Times,serif" font-size="14.00">id :integer</text>
<text text-anchor="start" x="585.5" y="-91.3" font-family="Times,serif" font-size="14.00">name :string</text>
<text text-anchor="start" x="585.5" y="-76.3" font-family="Times,serif" font-size="14.00">build_id :string</text>
<text text-anchor="start" x="585.5" y="-61.3" font-family="Times,serif" font-size="14.00">fedora_rpm_id :integer</text>
<text text-anchor="start" x="585.5" y="-46.3" font-family="Times,serif" font-size="14.00">created_at :datetime</text>
<text text-anchor="start" x="585.5" y="-31.3" font-family="Times,serif" font-size="14.00">updated_at :datetime</text>
</g>
<!-- FedoraRpm&#45;&gt;KojiBuild -->
<g id="edge8" class="edge"><title>FedoraRpm&#45;&gt;KojiBuild</title>
<path fill="none" stroke="#9df300" d="M578.673,-197.347C588.189,-182.145 597.528,-167.226 606.134,-153.478"/>
<ellipse fill="none" stroke="#9df300" cx="576.511" cy="-200.8" rx="4.00002" ry="4.00002"/>
<polygon fill="#9df300" stroke="#9df300" points="606.372,-153.098 615.492,-147.01 609.025,-148.86 611.678,-144.622 611.678,-144.622 611.678,-144.622 609.025,-148.86 607.863,-142.234 606.372,-153.098 606.372,-153.098"/>
</g>
<!-- ActiveRecord::Base -->
<g id="node10" class="node"><title>ActiveRecord::Base</title>
<ellipse fill="none" stroke="black" cx="364" cy="-769" rx="81.3646" ry="18"/>
<text text-anchor="middle" x="364" y="-765.3" font-family="Times,serif" font-size="14.00">ActiveRecord::Base</text>
</g>
<!-- ActiveRecord::Base&#45;&gt;RubyGem -->
<g id="edge5" class="edge"><title>ActiveRecord::Base&#45;&gt;RubyGem</title>
<path fill="none" stroke="black" d="M354.294,-751.067C346.226,-736.99 334.066,-715.775 321.473,-693.805"/>
</g>
<!-- ActiveRecord::Base&#45;&gt;FedoraRpm -->
<g id="edge10" class="edge"><title>ActiveRecord::Base&#45;&gt;FedoraRpm</title>
<path fill="none" stroke="black" d="M369.017,-750.998C382.485,-705.356 420.432,-576.758 450.273,-475.63"/>
</g>
<!-- ActiveRecord::Base&#45;&gt;Dependency -->
<g id="edge11" class="edge"><title>ActiveRecord::Base&#45;&gt;Dependency</title>
<path fill="none" stroke="black" d="M330.853,-752.377C313.843,-744.82 292.622,-736.09 273,-730 198.409,-706.849 155.782,-749.666 101,-694 -39.0796,-551.662 14.9003,-288.153 52.9275,-159.531"/>
</g>
<!-- ActiveRecord::Base&#45;&gt;GemVersion -->
<g id="edge12" class="edge"><title>ActiveRecord::Base&#45;&gt;GemVersion</title>
<path fill="none" stroke="black" d="M363.129,-750.878C360.929,-709.653 354.563,-601.654 344,-512 339.287,-472.003 332.111,-427.026 326.341,-393.241"/>
</g>
<!-- ActiveRecord::Base&#45;&gt;RpmVersion -->
<g id="edge13" class="edge"><title>ActiveRecord::Base&#45;&gt;RpmVersion</title>
<path fill="none" stroke="black" d="M327.498,-752.804C279.343,-732.642 200.05,-699.001 195,-694 119.52,-619.252 119.273,-579.868 97,-476 71.6534,-357.798 34.6447,-307.566 97,-204 114.639,-174.704 135.776,-185.757 165,-168 180.911,-158.332 197.578,-147.374 213.255,-136.663"/>
</g>
<!-- ActiveRecord::Base&#45;&gt;Bug -->
<g id="edge14" class="edge"><title>ActiveRecord::Base&#45;&gt;Bug</title>
<path fill="none" stroke="black" d="M383.455,-751.44C429.819,-710.502 545.939,-598.91 586,-476 623.462,-361.062 626.823,-317.788 586,-204 579.99,-187.248 570.489,-171.169 559.717,-156.544"/>
</g>
<!-- ActiveRecord::Base&#45;&gt;KojiBuild -->
<g id="edge15" class="edge"><title>ActiveRecord::Base&#45;&gt;KojiBuild</title>
<path fill="none" stroke="black" d="M413.829,-754.78C447.836,-743.525 491.835,-724.272 521,-694 667.922,-541.504 664.901,-265.533 655.414,-144.548"/>
</g>
</g>
</svg>
